<?xml version="1.0" encoding="utf-8"?>
<!-- Generator: Adobe Illustrator 25.2.0, SVG Export Plug-In . SVG Version: 6.00 Build 0)  -->
<svg version="1.1" id="Calque_1"
	 xmlns="http://www.w3.org/2000/svg" xmlns:xlink="http://www.w3.org/1999/xlink" x="0px" y="0px" viewBox="0 0 1656 555.6"
	 style="enable-background:new 0 0 1656 555.6;" xml:space="preserve">
<style type="text/css">
	.st0{fill:none;stroke:#38BBD5;stroke-width:41;stroke-miterlimit:10;}
	.st1{fill:#020203;}
	.st2{fill:#056734;}
	.st3{fill:#FFFFFF;}
	.st4{fill:#E94F1D;}
</style>
<path class="st0" d="M1629,0v363.6l0,0c0,29.8-24.2,54-54,54l0,0h-132h-5.2c-3.5,0.1-6.9,0.5-10.2,1.1c-16.2,3-30.6,12.2-40.8,25.2
	l-25.3,32.4c-11.8,14-29.4,22.8-49.1,22.8c-43.6-0.7-58.4-33-70.7-68.4c-16.2-46.6-30.7-93.3-85.6-94.2c-11.3-0.2-22.1,2.6-31.6,7.3
	c-11.8,5.8-21.6,15-28.6,26.2l-14.4,23c-6.6,10.5-15.6,19.3-26.5,25.1c-10.1,5.4-21.6,8.4-33.8,8.4l0,0c-26.8,0-50.3-14.7-62.6-36.5
	L907,307.9c-12.8-20.4-34.8-33.6-58.9-34.3H846l0,0c-39.8,0-72,32.2-72,72l0,0c0,25.6,13.3,48.1,33.5,60.8l60.2,37.5
	c13.7,8.5,22.7,23.2,23.3,39.4v1.8l0,0c0,27.3-22.2,49.5-49.5,49.5l0,0c-7.5,0-14.7-1.7-21-4.7l-9.9-4.6
	c-35.3-17.5-96.2-53.7-198.5-53.7H99c-39.6,0-72-32.4-72-72V0"/>
<g>
	<path class="st1" d="M1415.7,401.2l-2.2-1.3V296l2.2,0.3V401.2z"/>
	<path class="st1" d="M1493.3,444.9l-3.7-2.1V308.3l3.7,0.5V444.9z"/>
	<path class="st2" d="M1489.6,368.8l-73.8-25.3v-41.9l73.8,13.4V368.8z"/>
	<path class="st3" d="M1420.4,334.2l3.5-17.2l1.2,0.3l3.7,19.5l-1.2-0.4l-3.3-17.9l0.5,0.1l-3.2,16L1420.4,334.2z M1421.9,330.1
		l0.3-2l4.5,1.3l0.3,2.2L1421.9,330.1z"/>
	<path class="st3" d="M1430.1,337.1v-18.8l3.3,0.8c0.8,0.2,1.4,0.6,1.9,1.3c0.5,0.7,1,1.5,1.2,2.6c0.3,1.1,0.5,2.3,0.5,3.7
		c0,1.4-0.1,2.5-0.5,3.5c-0.3,0.9-0.7,1.6-1.2,1.9c-0.5,0.4-1.2,0.5-1.9,0.3l-2.6-0.7l0.5-1.1v7L1430.1,337.1z M1431.3,330.8
		l-0.5-1.5l2.6,0.7c0.8,0.2,1.4,0,1.8-0.7c0.4-0.7,0.6-1.7,0.6-3c0-1.4-0.2-2.5-0.6-3.3c-0.4-0.9-1-1.3-1.8-1.5l-2.6-0.6l0.5-1.2
		V330.8z M1435.8,338.9l-2.2-7.5l1.3,0.3l2.3,7.6L1435.8,338.9z"/>
	<path class="st3" d="M1439,339.8v-19.4l3.5,0.8c0.8,0.2,1.5,0.6,2.1,1.3c0.6,0.7,1,1.6,1.4,2.7c0.3,1.1,0.5,2.4,0.5,3.9
		c0,1.5-0.1,2.7-0.5,3.6c-0.3,0.9-0.8,1.6-1.4,2s-1.3,0.5-2.1,0.3l-2.8-0.8l0.6-1.1v7.2L1439,339.8z M1440.3,333.3l-0.6-1.5l2.8,0.7
		c0.8,0.2,1.5,0,1.9-0.7c0.5-0.7,0.6-1.7,0.6-3.1c0-1.4-0.2-2.5-0.6-3.5c-0.5-0.9-1.1-1.4-1.9-1.6l-2.8-0.7l0.6-1.3V333.3z
		 M1445.2,341.7l-2.3-7.9l1.4,0.4l2.4,7.9L1445.2,341.7z"/>
	<path class="st3" d="M1448.6,342.7v-20l1.4,0.3v20.1L1448.6,342.7z"/>
	<path class="st3" d="M1455.6,344.8l-4.3-21.5l1.5,0.3l4,19.9l-0.9-0.3l4.1-18l1.5,0.3l-4.5,19.6L1455.6,344.8z"/>
	<path class="st3" d="M1464.4,344.8l6.3,1.9v2.7l-7.8-2.3v-21l7.5,1.7v2.7l-6.1-1.5L1464.4,344.8L1464.4,344.8z M1464.2,335.4
		l5.5,1.5v2.6l-5.5-1.5V335.4z M1465.5,324.9l2.1-3.5l1.9,0.4l-2.6,3.4L1465.5,324.9z"/>
	<path class="st3" d="M1474.8,347.8l6.7,2v2.8l-8.3-2.5v-21.7l8.1,1.9v2.8l-6.4-1.6V347.8z M1474.6,338.1l5.9,1.5v2.7l-5.9-1.6
		V338.1z"/>
</g>
<g>
	<path class="st1" d="M465.7,498.4l-4,2.4l-9-128l4.1-0.9L465.7,498.4z"/>
	<path class="st1" d="M546,449l-2.3,1.4l-6.8-96.2l2.3-0.5L546,449z"/>
	<path class="st4" d="M540,397.4l-79.2,31.3l-3.6-50.6l80.1-19.2L540,397.4z"/>
	<path class="st3" d="M471.5,411.8l-1.4-20.8l5.3-1.5c1.3-0.4,2.5-0.3,3.6,0.3c1,0.6,1.9,1.5,2.5,2.9c0.6,1.3,1,3,1.2,5
		c0.2,2,0,3.8-0.4,5.5c-0.4,1.7-1.1,3.1-2,4.3c-0.9,1.2-2,2-3.4,2.5L471.5,411.8z M473.2,408.5l3.4-1.2c1-0.4,1.9-1,2.6-1.9
		c0.7-0.9,1.2-2,1.5-3.2s0.4-2.7,0.3-4.2s-0.4-2.8-0.9-3.8c-0.5-1-1.1-1.7-1.9-2.2c-0.8-0.4-1.7-0.5-2.7-0.2l-3.4,1L473.2,408.5z"/>
	<path class="st3" d="M487.4,403.6l6.6-2.3l0.2,2.4l-8.2,2.9l-1.4-19.9l8-2.3l0.2,2.4l-6.4,1.9L487.4,403.6z M486.6,394.9l5.8-1.9
		l0.2,2.4l-5.8,1.9L486.6,394.9z M487.3,384.4l2-4.3l2-0.5l-2.4,4.4L487.3,384.4z"/>
	<path class="st3" d="M496.7,402.8l-1.3-19.2l4.2-1.2c0.9-0.3,1.7-0.3,2.4,0.1c0.7,0.3,1.2,0.9,1.7,1.8c0.4,0.9,0.7,2,0.8,3.3
		c0.1,1.3,0,2.6-0.3,3.7c-0.3,1.1-0.7,2-1.3,2.7c-0.6,0.7-1.3,1.3-2.3,1.6l-3.3,1.1l0.6-1.5l0.5,7.1L496.7,402.8z M497.7,395.5
		l-0.8-1.1l3.3-1.1c1-0.3,1.7-0.9,2.1-1.8c0.4-0.9,0.6-2,0.5-3.3s-0.4-2.3-0.9-2.9c-0.6-0.6-1.3-0.7-2.3-0.5l-3.3,1l0.6-1.5
		L497.7,395.5z"/>
	<path class="st3" d="M505.3,399.8l3.3-19.9l1.4-0.4l5.7,16.7l-1.4,0.5l-5.1-15.5l0.6-0.2l-2.8,18.2L505.3,399.8z M506.9,394.5
		l0.3-2.3l5.5-1.9l0.6,2L506.9,394.5z"/>
	<path class="st3" d="M517,395.6l-1.2-17.9l3.6-1c0.8-0.3,1.5-0.2,2.1,0.2c0.6,0.3,1.1,0.9,1.4,1.7c0.4,0.8,0.6,1.9,0.7,3.1
		c0.1,1.2,0,2.4-0.2,3.4c-0.3,1-0.6,1.9-1.1,2.5c-0.5,0.7-1.2,1.1-2,1.4l-2.9,1l0.5-1.4l0.5,6.6L517,395.6z M517.8,388.8l-0.7-1
		l2.8-0.9c0.8-0.3,1.4-0.8,1.8-1.6c0.4-0.8,0.5-1.9,0.4-3.1c-0.1-1.2-0.4-2.2-0.8-2.7c-0.5-0.6-1.1-0.7-2-0.5l-2.8,0.8l0.5-1.4
		L517.8,388.8z M523.1,393.4l-2.7-5.6l1.4-0.5l2.7,5.5L523.1,393.4z"/>
	<path class="st3" d="M528,391.7l-1-15l-3,0.9l-0.2-2.2l7.1-2.1l0.2,2.1l-2.9,0.9l1,14.9L528,391.7z"/>
</g>
</svg>
