<svg xmlns="http://www.w3.org/2000/svg" width="1656" height="555.6" fill="none"><g stroke-miterlimit="10"><use href="#X" stroke="#fff" stroke-width="41"/><use href="#X" stroke="#2c2b30" stroke-width="37"/><use href="#X" stroke="#fff" stroke-width="1.5" stroke-dasharray="6.9889,7.9873"/></g><defs><path id="X" d="M1656 419h-401.4-5.1a65.11 65.11 0 0 0-10 1.1c-15.9 2.9-30 12-40 24.7l-24.8 31.8c-11.6 13.7-28.8 22.4-48.1 22.4-42.8-.7-57.3-32.4-69.3-67.1-15.9-45.7-30.1-91.5-83.9-92.4-11.1-.2-21.7 2.5-31 7.2-11.6 5.7-21.2 14.7-28 25.7L900.3 395c-6.5 10.3-15.3 18.9-26 24.6-9.9 5.3-21.2 8.2-33.1 8.2h0c-26.3 0-49.3-14.4-61.4-35.8L729 311.5c-12.6-20-34.1-32.9-57.8-33.6h-2.1 0c-39 0-70.6 31.6-70.6 70.6h0c0 25.1 13 47.2 32.9 59.6l59 36.8c13.4 8.3 22.3 22.8 22.8 38.6v1.8h0c0 26.8-21.8 48.5-48.5 48.5h0c-7.4 0-14.4-1.7-20.6-4.6l-9.7-4.5c-34.6-17.2-94.3-52.7-194.7-52.7L0 471.9"/></defs><path d="M1209.8 409l-2.2-1.3V305.8l2.2.3V409zm76.1 42.8l-3.6-2.1V317.9l3.6.5v133.4z" fill="#020203"/><path d="M1282.3 377.2l-72.4-24.8v-41.1l72.4 13.1v52.8z" fill="#056734"/><path d="M1214.4 343.3l3.4-16.9 1.2.3 3.6 19.1-1.2-.4-3.2-17.6.5.1-3.1 15.7-1.2-.3zm1.5-4.1l.3-2 4.4 1.3.3 2.2-5-1.5zm8 6.9v-18.4l3.2.8a3.14 3.14 0 0 1 1.9 1.3c.5.7 1 1.5 1.2 2.5a13.61 13.61 0 0 1 .5 3.6c0 1.4-.1 2.5-.5 3.4-.3.9-.7 1.6-1.2 1.9-.5.4-1.2.5-1.9.3l-2.5-.7.5-1.1v6.9l-1.2-.5zm1.2-6.2l-.5-1.5 2.5.7c.8.2 1.4 0 1.8-.7s.6-1.7.6-2.9c0-1.4-.2-2.5-.6-3.2-.4-.9-1-1.3-1.8-1.5l-2.5-.6.5-1.2v10.9zm4.4 8l-2.2-7.4 1.3.3 2.3 7.5-1.4-.4zm3.2.8v-19l3.4.8a3.93 3.93 0 0 1 2.1 1.3c.6.7 1 1.6 1.4 2.6.3 1.1.5 2.4.5 3.8s-.1 2.6-.5 3.5c-.3.9-.8 1.6-1.4 2s-1.3.5-2.1.3l-2.7-.8.6-1.1v7.1l-1.3-.5zm1.3-6.3l-.6-1.5 2.7.7c.8.2 1.5 0 1.9-.7.5-.7.6-1.7.6-3 0-1.4-.2-2.5-.6-3.4-.5-.9-1.1-1.4-1.9-1.6l-2.7-.7.6-1.3v11.5zm4.8 8.2l-2.3-7.7 1.4.4 2.4 7.7-1.5-.4zm3.3 1V332l1.4.3V352l-1.4-.4zm6.9 2l-4.2-21.1 1.5.3 3.9 19.5-.9-.3 4-17.7 1.5.3-4.4 19.2-1.4-.2zm8.6 0l6.2 1.9v2.6l-7.6-2.3v-20.6l7.4 1.7v2.6l-6-1.5v15.6h0zm-.2-9.2l5.4 1.5v2.5l-5.4-1.5v-2.5zm1.3-10.3l2.1-3.4 1.9.4-2.5 3.3-1.5-.3zm9.1 22.5l6.6 2v2.7l-8.1-2.5v-21.3l7.9 1.9v2.7l-6.3-1.6-.1 16.1h0zm-.2-9.5l5.8 1.5v2.6l-5.8-1.6v-2.5z" fill="#fff"/><path d="M407.2 498.3l-3.9 2.4-8.8-125.5 4-.9 8.7 124zm78.8-48.5l-2.3 1.4-6.7-94.3 2.3-.5 6.7 93.4z" fill="#020203"/><path d="M480.1 399.2l-77.7 30.7-3.5-49.6 78.5-18.8 2.7 37.7z" fill="#e94f1d"/><path d="M412.9 413.4l-1.4-20.4 5.2-1.5c1.3-.4 2.5-.3 3.5.3a6.27 6.27 0 0 1 2.5 2.8c.6 1.3 1 2.9 1.2 4.9s0 3.7-.4 5.4-1.1 3-2 4.2a7.29 7.29 0 0 1-3.3 2.5l-5.3 1.8zm1.7-3.3l3.3-1.2c1-.4 1.9-1 2.5-1.9.7-.9 1.2-2 1.5-3.1.3-1.2.4-2.6.3-4.1s-.4-2.7-.9-3.7-1.1-1.7-1.9-2.2c-.8-.4-1.7-.5-2.6-.2l-3.3 1 1.1 15.4zm13.9-4.8l6.5-2.3.2 2.4-8 2.8-1.4-19.5 7.8-2.3.2 2.4-6.3 1.9 1 14.6zm-.8-8.5l5.7-1.9.2 2.4-5.7 1.9-.2-2.4zm.7-10.3l2-4.2 2-.5-2.4 4.3-1.6.4zm9.2 18l-1.3-18.8 4.1-1.2c.9-.3 1.7-.3 2.4.1.7.3 1.2.9 1.7 1.8.4.9.7 2 .8 3.2.1 1.3 0 2.5-.3 3.6s-.7 2-1.3 2.6c-.6.7-1.3 1.3-2.3 1.6l-3.2 1.1.6-1.5.5 7-1.7.5zm1-7.1l-.8-1.1 3.2-1.1c1-.3 1.7-.9 2.1-1.8s.6-2 .5-3.2c-.1-1.3-.4-2.3-.9-2.8-.6-.6-1.3-.7-2.3-.5l-3.2 1 .6-1.5.8 11zm7.4 4.2l3.2-19.5 1.4-.4 5.6 16.4-1.4.5-5-15.2.6-.2-2.7 17.8-1.7.6zm1.6-5.2l.3-2.3 5.4-1.9.6 2-6.3 2.2zm9.9 1.1l-1.2-17.6 3.5-1c.8-.3 1.5-.2 2.1.2.6.3 1.1.9 1.4 1.7.4.8.6 1.9.7 3 .1 1.2 0 2.4-.2 3.3-.3 1-.6 1.9-1.1 2.5-.5.7-1.2 1.1-2 1.4l-2.8 1 .5-1.4.5 6.5-1.4.4zm.8-6.7l-.7-1 2.7-.9a3.14 3.14 0 0 0 1.8-1.6c.4-.8.5-1.9.4-3-.1-1.2-.4-2.2-.8-2.6-.5-.6-1.1-.7-2-.5l-2.7.8.5-1.4.8 10.2zm5.2 4.5l-2.6-5.5 1.4-.5 2.6 5.4-1.4.6zm4.8-1.7l-1-14.7-2.9.9-.2-2.2 7-2.1.2 2.1-2.8.9 1 14.6-1.3.5z" fill="#fff"/></svg>