
<svg xmlns="http://www.w3.org/2000/svg" width="800" height="400">
  <defs>
    <marker id="arrow" markerWidth="10" markerHeight="10" refX="10" refY="3" orient="auto">
      <path d="M0,0 L10,3 L0,6 Z" fill="#333" />
    </marker>
  </defs>

  <rect x="330" y="20" width="140" height="40" fill="#ddeeff" stroke="#333" />
  <text x="400" y="45" font-size="12" text-anchor="middle">Header</text>

  <rect x="330" y="100" width="140" height="40" fill="#ddeeff" stroke="#333" />
  <text x="400" y="125" font-size="12" text-anchor="middle">Nav</text>

  <rect x="330" y="180" width="140" height="40" fill="#ddeeff" stroke="#333" />
  <text x="400" y="205" font-size="12" text-anchor="middle">NavLinkShow</text>

  <rect x="190" y="260" width="140" height="40" fill="#ddeeff" stroke="#333" />
  <text x="260" y="285" font-size="12" text-anchor="middle">RenderLink</text>

  <rect x="470" y="260" width="140" height="40" fill="#ddeeff" stroke="#333" />
  <text x="540" y="285" font-size="12" text-anchor="middle">SubMenu</text>

  <rect x="330" y="260" width="140" height="40" fill="#ddeeff" stroke="#333" />
  <text x="400" y="285" font-size="12" text-anchor="middle">NavInput</text>

  <rect x="40" y="20" width="160" height="40" fill="#e8f5e9" stroke="#333" />
  <text x="120" y="45" font-size="12" text-anchor="middle">NavigationContext</text>

  <rect x="600" y="20" width="160" height="40" fill="#e8f5e9" stroke="#333" />
  <text x="680" y="45" font-size="12" text-anchor="middle">ScrollContext</text>

  <rect x="40" y="100" width="160" height="40" fill="#fce4ec" stroke="#333" />
  <text x="120" y="125" font-size="12" text-anchor="middle">updateMenuUtils</text>

  <rect x="600" y="100" width="160" height="40" fill="#fce4ec" stroke="#333" />
  <text x="680" y="125" font-size="12" text-anchor="middle">fnScrollUtils</text>

  <rect x="600" y="180" width="160" height="40" fill="#fce4ec" stroke="#333" />
  <text x="680" y="205" font-size="12" text-anchor="middle">scrollUtils</text>

  <rect x="330" y="340" width="140" height="40" fill="#fce4ec" stroke="#333" />
  <text x="400" y="365" font-size="12" text-anchor="middle">useResize</text>

  <!-- Edges -->
  <line x1="400" y1="60" x2="400" y2="100" stroke="#333" marker-end="url(#arrow)" />
  <line x1="400" y1="140" x2="400" y2="180" stroke="#333" marker-end="url(#arrow)" />
  <line x1="400" y1="220" x2="260" y2="260" stroke="#333" marker-end="url(#arrow)" />
  <line x1="400" y1="220" x2="540" y2="260" stroke="#333" marker-end="url(#arrow)" />
 <line x1="400" y1="220" x2="400" y2="260" stroke="#333" marker-end="url(#arrow)" />
 <line x1="330" y1="40" x2="200" y2="40" stroke="#333" marker-end="url(#arrow)" />
 <line x1="470" y1="40" x2="600" y2="40" stroke="#333" marker-end="url(#arrow)" />
 <line x1="400" y1="60" x2="400" y2="340" stroke="#333" marker-end="url(#arrow)" />
  <line x1="330" y1="120" x2="200" y2="120" stroke="#333" marker-end="url(#arrow)" />
 <line x1="470" y1="120" x2="600" y2="120" stroke="#333" marker-end="url(#arrow)" />
 <line x1="600" y1="200" x2="600" y2="140" stroke="#333" marker-end="url(#arrow)" />
  <line x1="330" y1="180" x2="200" y2="40" stroke="#333" marker-end="url(#arrow)" />
 <line x1="330" y1="180" x2="600" y2="40" stroke="#333" marker-end="url(#arrow)" />
 <line x1="260" y1="260" x2="200" y2="40" stroke="#333" marker-end="url(#arrow)" />
  <line x1="540" y1="260" x2="200" y2="40" stroke="#333" marker-end="url(#arrow)" />
 <line x1="120" y1="100" x2="120" y2="60" stroke="#333" marker-end="url(#arrow)" />
  <line x1="680" y1="220" x2="680" y2="60" stroke="#333" marker-end="url(#arrow)" />
  <line x1="680" y1="140" x2="680" y2="180" stroke="#333" marker-end="url(#arrow)" />
</svg>