<svg xmlns="http://www.w3.org/2000/svg" width="1440" height="1587" fill="none"><path d="M1440 0H0V1587H1440V0Z" fill="url(#A)"/><path d="M1281.21 518.924l-396.984 263.66L0 1369.52V1587h630.34l584.75-692.318L1440 628.083V413.544l-158.79 105.38z" fill="url(#B)"/><path d="M1420.98 503.39l6.65 1.259 6.94-5.878-6.64-.839-6.95 5.458zm-14.79 12.175l6.64 1.26 7.24-6.298-6.64-.84-7.24 5.878zM1390.79 529l6.94.84 7.85-6.298-6.94-1.26-7.85 6.718z" fill="#fff"/><path d="M1403.32 374.117l-4.83-.42-116.53 62.557 5.43.839 115.93-62.976z" fill="#1d1d1b"/><path d="M1303.85 454.688l-5.43-.42-92.38 52.48 6.04.84 91.77-52.9zm68.83 89.426l7.24 1.26 8.46-7.137-7.25-1.26-8.45 7.137zm-17.81 15.115l7.54 1.259 9.06-7.557-7.55-1.26-9.05 7.558zm-19.92 16.373l7.84 1.26 9.66-8.397-7.54-1.259-9.96 8.396zm-20.54 17.634l7.85 1.679 10.57-9.237-7.85-1.259-10.57 8.817zm-22.34 19.312l8.15 1.68 11.47-9.657-8.15-1.679-11.47 9.656zm-24.45 20.992l8.45 1.68 12.38-10.496-8.15-1.68-12.68 10.496zm-27.47 22.672l8.45 2.099 13.89-11.755-8.76-2.1-13.58 11.756zm-29.28 25.19l8.75 2.1 15.1-13.016-8.76-2.099-15.09 13.015zm-33.51 27.29l9.36 2.519 16.3-14.274-9.06-2.1-16.6 13.855zm-35.93 30.649l9.66 2.938 18.42-15.954-9.67-2.519-18.41 15.535zm-40.75 34.007l9.96 2.939 20.53-17.634-9.96-2.939-20.53 17.634zm-44.98 38.205l10.56 3.359 22.94-19.733-10.26-3.358-23.24 19.732z" fill="#fff"/><path d="M1167.09 510.527l-6.03-.84-252.38 134.769 7.245 2.1 251.165-136.029z" fill="#1d1d1b"/><path d="M1214 506.122l-6.74-.939L585 858.679l9.433 3.755L1214 506.122zm-213.85 352.034l10.87 3.778 26.26-22.671-10.57-3.359-26.56 22.252zm-58.259 49.541l11.471 4.198 29.887-25.61-11.17-4.199-30.188 25.611zm-67.625 56.259l11.471 5.038 34.717-29.809-11.471-4.618-34.717 29.389zm-77.586 65.914l12.075 5.88 40.453-34.43-12.076-5.876-40.452 34.426zm-90.571 77.25l12.378 7.14 47.396-40.73-12.377-6.71-47.397 40.3zm-108.07 91.95l12.679 8.39 56.755-48.7-12.679-7.56-56.755 47.87zm-132.227 110.41l12.982 10.08 68.83-59.2-12.679-9.23-69.133 58.35zm-161.507 136.87l12.981 13.02 85.434-73.47-12.981-11.76-85.434 72.21zM1440 487.436l-5.73 4.618 5.73.84v-5.458zm0 306.064l-53.44 84.388 13.29 4.199 40.15-65.916V793.5z" fill="#fff"/><path d="M1440 926.59l-278.95 531.94 21.74 13.01L1440 959.757V926.59zM0 1101.94l422-228.695-4.675-1.754L0 1095.18v6.76z" fill="#1d1d1b"/><path d="M1394.72 416.063L0 1258.68v110.84l1429.74-949.259 10.26-6.717v-24.771l-45.28 27.29zm-93.89 106.219L912 791.821 0 1424.1v19.31l921.359-648.231 386.111-271.637L1440 429.917v-4.198l-139.17 96.563zM166.035 1587l53.736-46.18-12.68-14.28-71.849 60.46h30.793zM1177.97 882.087L537.664 1587h30.793l621.883-700.715L1440 604.571v-10.915l-262.03 288.431zm37.12 12.595L630.336 1587h185.358l476.986-666.288L1440 715.409v-87.326l-224.91 266.599zM970.266 1587l265.964-436.63-16.91-7.56L939.172 1587h31.094z" fill="#fff"/><defs><linearGradient id="A" x1="133.743" y1="333.155" x2="1553.42" y2="909.528" gradientUnits="userSpaceOnUse"><stop stop-color="#f8ad19"/><stop offset=".626" stop-color="#f8ad19"/><stop offset="1" stop-color="#ffae04"/></linearGradient><linearGradient id="B" x1="189.389" y1="1589.14" x2="1601.01" y2="945.436" gradientUnits="userSpaceOnUse"><stop/><stop offset=".23" stop-color="#0d0d0d"/><stop offset=".626" stop-color="#2c2c2c"/><stop offset="1" stop-color="#25262f"/></linearGradient></defs></svg>