<svg xmlns="http://www.w3.org/2000/svg" viewBox="0 0 1656 555.6"><path d="M1430.7 397.2l-2.2-1.3V292l2.2.3v104.9zm77.6 43.7l-3.7-2.1V304.3l3.7.5v136.1z" fill="#020203"/><path d="M1504.6 364.8l-73.8-25.3v-41.9l73.8 13.4v53.8z" fill="#056734"/><path d="M1435.4 330.2l3.5-17.2 1.2.3 3.7 19.5-1.2-.4-3.3-17.9.5.1-3.2 16-1.2-.4zm1.5-4.1l.3-2 4.5 1.3.3 2.2-5.1-1.5zm8.2 7v-18.8l3.3.8a3.14 3.14 0 0 1 1.9 1.3c.5.7 1 1.5 1.2 2.6.3 1.1.5 2.3.5 3.7s-.1 2.5-.5 3.5c-.3.9-.7 1.6-1.2 1.9-.5.4-1.2.5-1.9.3l-2.6-.7.5-1.1v7l-1.2-.5zm1.2-6.3l-.5-1.5 2.6.7c.8.2 1.4 0 1.8-.7s.6-1.7.6-3c0-1.4-.2-2.5-.6-3.3-.4-.9-1-1.3-1.8-1.5l-2.6-.6.5-1.2v11.1zm4.5 8.1l-2.2-7.5 1.3.3 2.3 7.6-1.4-.4zm3.2.9v-19.4l3.5.8a3.93 3.93 0 0 1 2.1 1.3c.6.7 1 1.6 1.4 2.7.3 1.1.5 2.4.5 3.9s-.1 2.7-.5 3.6c-.3.9-.8 1.6-1.4 2s-1.3.5-2.1.3l-2.8-.8.6-1.1v7.2l-1.3-.5zm1.3-6.5l-.6-1.5 2.8.7c.8.2 1.5 0 1.9-.7.5-.7.6-1.7.6-3.1s-.2-2.5-.6-3.5c-.5-.9-1.1-1.4-1.9-1.6l-2.8-.7.6-1.3v11.7zm4.9 8.4l-2.3-7.9 1.4.4 2.4 7.9-1.5-.4zm3.4 1v-20l1.4.3v20.1l-1.4-.4zm7 2.1l-4.3-21.5 1.5.3 4 19.9-.9-.3 4.1-18 1.5.3-4.5 19.6-1.4-.3zm8.8 0l6.3 1.9v2.7l-7.8-2.3v-21l7.5 1.7v2.7l-6.1-1.5.1 15.8h0zm-.2-9.4l5.5 1.5v2.6l-5.5-1.5v-2.6zm1.3-10.5l2.1-3.5 1.9.4-2.6 3.4-1.4-.3zm9.3 22.9l6.7 2v2.8l-8.3-2.5v-21.7l8.1 1.9v2.8l-6.4-1.6-.1 16.3h0zm-.2-9.7l5.9 1.5v2.7l-5.9-1.6v-2.6z" fill="#fff"/><path d="M574.7 498.5l-3.8 2.3-8.5-120.4 3.9-.8 8.4 118.9zm75.5-46.4l-2.2 1.3-6.4-90.5 2.2-.5 6.4 89.7z" fill="#020203"/><path d="M644.6 403.5L570.1 433l-3.4-47.6 75.4-18.1 2.5 36.2z" fill="#e94f1d"/><path d="M580.1 417.1l-1.3-19.6 5-1.4c1.2-.4 2.4-.3 3.4.3.9.6 1.8 1.4 2.4 2.7.6 1.2.9 2.8 1.1 4.7s0 3.6-.4 5.2-1 2.9-1.9 4c-.8 1.1-1.9 1.9-3.2 2.4l-5.1 1.7zm1.6-3.1l3.2-1.1c.9-.4 1.8-.9 2.4-1.8.7-.8 1.1-1.9 1.4-3s.4-2.5.3-4c-.1-1.4-.4-2.6-.8-3.6s-1-1.6-1.8-2.1c-.8-.4-1.6-.5-2.5-.2l-3.2.9 1 14.9zm13.4-4.7l6.2-2.2.2 2.3-7.7 2.7-1.3-18.7 7.5-2.2.2 2.3-6 1.8.9 14zm-.7-8.1l5.5-1.8.2 2.3-5.5 1.8-.2-2.3zm.6-9.9l1.9-4 1.9-.5-2.3 4.1-1.5.4zm8.9 17.3l-1.2-18.1 4-1.1c.8-.3 1.6-.3 2.3.1.7.3 1.1.8 1.6 1.7.4.8.7 1.9.8 3.1s0 2.4-.3 3.5c-.3 1-.7 1.9-1.2 2.5-.6.7-1.2 1.2-2.2 1.5l-3.1 1 .6-1.4.5 6.7-1.8.5zm.9-6.9l-.8-1 3.1-1c.9-.3 1.6-.8 2-1.7.4-.8.6-1.9.5-3.1s-.4-2.2-.8-2.7c-.6-.6-1.2-.7-2.2-.5l-3.1.9.6-1.4.7 10.5zm7.1 4.1l3.1-18.7 1.3-.4 5.4 15.7-1.3.5-4.8-14.6.6-.2-2.6 17.1-1.7.6zm1.6-5l.3-2.2 5.2-1.8.6 1.9-6.1 2.1zm9.5 1l-1.1-16.8 3.4-.9c.8-.3 1.4-.2 2 .2.6.3 1 .8 1.3 1.6.4.8.6 1.8.7 2.9s0 2.3-.2 3.2c-.3.9-.6 1.8-1 2.4-.5.7-1.1 1-1.9 1.3l-2.7.9.5-1.3.5 6.2-1.5.3zm.7-6.4l-.7-.9 2.6-.8c.8-.3 1.3-.8 1.7-1.5s.5-1.8.4-2.9-.4-2.1-.8-2.5c-.5-.6-1-.7-1.9-.5l-2.6.8.5-1.3.8 9.6zm5 4.3l-2.5-5.3 1.3-.5 2.5 5.2-1.3.6zm4.6-1.6l-.9-14.1-2.8.8-.2-2.1 6.7-2 .2 2-2.7.8.9 14-1.2.6z" fill="#fff"/></svg>