<svg xmlns="http://www.w3.org/2000/svg" viewBox="0 0 260 260" ><path d="M42.9 204.9l-39.4-5.3c-5.1-.7-4.5-2.8 1-4L99 174.4c2.2-.5 5.4-.6 8-.4l39.9 4.3-104 26.6z" fill="#95be3b"/><path d="M43.3 204.8l13.9 19.6 113.2-33.6-23.3-12.5z" fill="#718f2d"/><path d="M120.8 234.2l-64-9.5 113.5-33.8 54.5 6.4z" fill="#95be3b"/><path d="M121.1 234.1l22.6 21.9c3.5 3.4 14.2 4.3 20.1 1.7l94.9-41.8c2.1-.9 1.8-2.3-.7-3.4l-32.9-15.2-104 36.8z" fill="#718f2d"/><path d="M116.3 186.2c-.2.1-.4.1-.6.2l-48.1 12.3c-.1 0-.2 0-.3.1-.2 0-.4-.1-.7-.1L33.3 195l-17.1-2 20.4-4.6c2.5.4 5.5.6 8.4.9l38.3 4.1c1.5.2 2.2 0 2.6-.4l3.4-3.2 13.3-12 4.2-3.7a352.86 352.86 0 0 1 14.8 1.5c-.1.1-.3.2-.3.3l-4 7.8c-.4.8-1.1 1.6-1 2.5z" fill="#fdd001"/><path d="M180.4 213.1c.1 1.2-1 2.4-1.7 3.6l-15 26.9-8.9 15.9c-4.5 0-7.7-.9-9.4-2.6-3.7-3.5-7-6.9-10.2-10.2v-.3h0c.7-.2.6-.6.8-.9l7.3-13.4c1.3-2.4 2.9-4.7 3.6-7l.9-.6 29.6-10.5 3-.9z" fill="#f7a308"/><path d="M201.4 206l21.7 4.3 33.1 6.6c-4.4 2.1-9.1 4.2-14.4 6.3l-55.7-11.1c-.2 0-.4-.1-.5-.1-.3-.4.3-.6.9-.8L201 206h.4z" fill="#f8a207"/><path d="M180.4 213.1l-3.1 1-29.6 10.5c.8-1.4 2.4-2.7 3.6-4 3.2-3.4 6.3-6.6 9.4-9.6.7-.6-.7-.6-1.8-.7l-41.6-2.6c-.9-.1-1.8-.1-2.5-.2l18.3-5.5c.1 0 .2 0 .3-.1 4.8.4 9.8.6 14.7.9l49.6 2.9c.8 0 1.6 0 2.4.2l-16.2 5.8c-1.1.5-2.3.9-3.5 1.4z" fill="#fdd001"/><path d="M133.3 202l-18.3 5.5c-.2 0-.4.1-.5.1l-19.3-3.7-25.8-4.8c-.6-.1-1.1-.3-1.7-.4l48.1-12.3-6.1 4.2-8.2 5.3c-.7.5.3.5 1.2.7l25.5 4.5 5.1.9z" fill="#f8a207"/></svg>