<svg xmlns="http://www.w3.org/2000/svg" width="1656" height="555.6" fill="none"><g stroke-miterlimit="10"><use href="#A" stroke="#fff" stroke-width="41"/><use href="#A" stroke="#2c2b30" stroke-width="37"/><use href="#A" stroke="#fff" stroke-width="1.5" stroke-dasharray="6.9889,7.9873"/></g><defs><path id="A" d="M1629 0v363.6h0c0 29.8-24.2 54-54 54h0-132-5.2c-3.5.1-6.9.5-10.2 1.1-16.2 3-30.6 12.2-40.8 25.2l-25.3 32.4c-11.8 14-29.4 22.8-49.1 22.8-43.6-.7-58.4-33-70.7-68.4-16.2-46.6-30.7-93.3-85.6-94.2-11.3-.2-22.1 2.6-31.6 7.3-11.8 5.8-21.6 15-28.6 26.2l-14.4 23c-6.6 10.5-15.6 19.3-26.5 25.1-10.1 5.4-21.6 8.4-33.8 8.4h0c-26.8 0-50.3-14.7-62.6-36.5L907 307.9c-12.8-20.4-34.8-33.6-58.9-34.3H846h0c-39.8 0-72 32.2-72 72h0c0 25.6 13.3 48.1 33.5 60.8l60.2 37.5c13.7 8.5 22.7 23.2 23.3 39.4v1.8h0c0 27.3-22.2 49.5-49.5 49.5h0c-7.5 0-14.7-1.7-21-4.7l-9.9-4.6c-35.3-17.5-96.2-53.7-198.5-53.7H99c-39.6 0-72-32.4-72-72V0"/></defs></svg>