<svg width="37" height="32" viewBox="0 0 37 32" fill="none" xmlns="http://www.w3.org/2000/svg">
<g clip-path="url(#clip0_679_5576)">
<path d="M21.0859 22C27.1609 22 32.0859 17.075 32.0859 11C32.0859 4.925 27.1609 0 21.0859 0C15.0109 0 10.0859 4.925 10.0859 11C10.0859 12.1687 10.2672 13.3 10.6047 14.3562L0.523438 24.4375C0.242188 24.7188 0.0859375 25.1 0.0859375 25.5V30.5C0.0859375 31.3312 0.754687 32 1.58594 32H6.58594C7.41719 32 8.08594 31.3312 8.08594 30.5V28H10.5859C11.4172 28 12.0859 27.3312 12.0859 26.5V24H14.5859C14.9859 24 15.3672 23.8438 15.6484 23.5625L17.7297 21.4813C18.7859 21.8188 19.9172 22 21.0859 22ZM23.5859 6C24.249 6 24.8849 6.26339 25.3537 6.73223C25.8225 7.20107 26.0859 7.83696 26.0859 8.5C26.0859 9.16304 25.8225 9.79893 25.3537 10.2678C24.8849 10.7366 24.249 11 23.5859 11C22.9229 11 22.287 10.7366 21.8182 10.2678C21.3493 9.79893 21.0859 9.16304 21.0859 8.5C21.0859 7.83696 21.3493 7.20107 21.8182 6.73223C22.287 6.26339 22.9229 6 23.5859 6Z" fill="#1D1D1B"/>
</g>
<defs>
<clipPath id="clip0_679_5576">
<rect width="36.9116" height="32" fill="white" transform="translate(0.0859375)"/>
</clipPath>
</defs>
</svg>
