<svg xmlns="http://www.w3.org/2000/svg" viewBox="0 0 480 195.5" xmlns:v="https://vecta.io/nano"><linearGradient  gradientUnits="userSpaceOnUse" x1="-404.424" y1="-228.537" x2="958.949" y2="324.977"><stop offset="0" stop-color="#f8ad19"/><stop offset=".626" stop-color="#f8ad19"/><stop offset="1" stop-color="#ffae04"/></linearGradient><path d="M343.1 130.8c-.1 1.6-1.4 2.6-3.3 2.6-1.7 0-2.8-1.1-2.8-2.9 0-1.9 1.1-3.3 3-3.3s3 1.2 3.1 3.6zm120-44c-2.4-9-3.5-18.3-7.4-26.8-2.4-5.2-7.7-8.9-13.4-8.9-1 0-2.2.2-2.8-.3-3.9-3.2-8.5-3.4-13.1-3.4-15.4-.1-30.6-2.2-45.9-2.8-20.3-.8-40.5-2.4-60.8-3.4-25.6-1.3-51.2-2.1-76.9-2.1-31.5 0-63.1 1.1-94.6 2.5L47.6 47.5c-8.1.6-16.9 1-23.7 7.4-3.2 3-5 6.8-6 10.7-2.7 11.1-5.7 22.2-7 33.6-1.9 16-1.7 16 14.2 16H133c16.1 0 56.5 8.4 72.6 8.4l163.9-2.2 11.5-1.6.2-3.7 78.5-.9c4.6 0 5.5-1.6 5.8-5.6.9-7.9-.4-15.5-2.4-22.8zm-247.6 40.4c1.9.4 2.9 1.5 2.8 3.4-.1 1.7-1.1 2.8-2.9 2.7-1.9-.1-3.2-1-3.2-3.1.1-1.8 1.4-2.8 3.3-3z" fill="#e4e3e2"/><path d="M469.9 104.8c-.6-14.5-.9-28.2-5-42.1-1.3-4.6-1.9-11.2-6.2-14-4.5-3-13.4-6.9-18.7-7.6-18.5-2.4-39.6 1.8-58.2.4-16.6-1.3-33.3-1.6-49.9-2.5-38.9-2.1-77.8-3.8-116.7-2.7-58.2 1.6-121.5-.1-179.5 5.2-14.5 1.3-16.2 10-19.9 24.7-2.8 11-5.6 22-6.9 33.2-2.2 20 .1 30.1 18.5 30.9l44.1 2.4c26.5.7 54.2-1.4 80.7-.8l44.2.7c2.1 0 94.4 5.3 95.4 2.8l66.1-1.9c1 .6 0-2.2 1.1-2.2l24.5-.6c21.5-.7 44 .7 65.4-.3 16.5-.8 21.6-9.2 21-25.6zm-3.2 4.7c-.3 4-1.2 5.6-5.8 5.6-27.5-.1-55-.1-82.5 0 1.3.5 2 1.1 2 1.6 0 3.8-31.7 6.8-70.7 6.8s-70.7-3-70.7-6.8c0-.5-46-1.5-46-1.5-19.7 0-39.3-.1-59-.1H26.1c-16 0-16.1 0-14.2-16 1.3-11.4 4.4-22.5 7-33.6.9-3.9 2.7-7.7 6-10.7 6.8-6.4 15.5-6.8 23.7-7.4l100.6-5.9c31.5-1.4 63-2.6 94.6-2.5 25.6 0 51.3.8 76.9 2.1l60.8 3.4c15.3.6 30.6 2.7 45.9 2.8 4.7 0 9.3.3 13.1 3.4.6.5 1.9.4 2.8.3 5.6-.1 11 3.7 13.4 8.9 3.9 8.6 5 17.9 7.4 26.8 2 7.4 3.3 15 2.6 22.8z" fill="#e19b17"/><path d="M473.6 68.6l-.4-2.3c-4.7-18.9-14.1-26.7-29.1-29.6l-138.8-7.1c-43.6-2.2-87.3-2.2-130.9 0L35.6 36.7c-18 2.4-24.2 10.6-29.1 29.6-.2.8-.3 1.5-.4 2.3L.2 111.3c-.2 1.4-.3 2.9-.1 4.3 1.2 13.2 11.5 20.7 24.2 20.7l215.7 3.5 215.7-3.5c12.7 0 23.1-7.6 24.2-20.8.1-1.4.1-2.8-.1-4.2l-6.2-42.7zm-28.7 61l-205 3-205-3c-10.8 0-19.8-5.2-22.4-14.5-.7-2.6-.8-5.3-.4-7.9l5.5-37.6c.1-.8.3-1.7.5-2.5 4.5-16.2 9.3-23.7 27.6-23.7l58.4-2.7a2928.82 2928.82 0 0 1 271.6 0l58.3 2.6c18.3 0 23.1 7.5 27.6 23.7.2.8.4 1.7.5 2.5l5.5 37.6c.4 2.6.3 5.4-.4 7.9-2.5 9.4-11.6 14.6-22.3 14.6zM255.2 0h-30.8a112.9 112.9 0 0 1-15 23.7c9.9-.3 19.9-.4 30.1-.4l30.8.4c-6-7.3-11.1-15.2-15.1-23.7zm2.1 154.2h-35c-1.6 0-2.9-1.3-2.9-2.9v-6.6h40.8v6.6c0 1.6-1.3 2.9-2.9 2.9zm96.5-55.5c-.6-2.5-2.8-4.2-5.3-4.2l-40.6-.8-41.7.8c-2.6 0-4.9 1.8-5.4 4.4l-2 9a5.84 5.84 0 0 0 1.1 4.6c1 1.3 2.6 2 4.3 2h86.7a5.45 5.45 0 0 0 4.3-2.1c1.1-1.3 1.4-3.1 1-4.7l-2.4-9zm-92.7 12.8c-.8-.9-1.1-2.2-.8-3.3l2-9c.4-1.9 2-3.2 3.9-3.2l41.7-.8 40.5.8c1.8 0 3.5 1.3 3.9 3.1l2.4 9c.3 1.2 0 2.5-.7 3.4-.8 1-1.9 1.5-3.2 1.5h-86.7c-1.1 0-2.3-.5-3-1.5z"/><path d="M369.1 132.6h14.2v-12.9c2.2-.5 3.4-1.1 3.4-1.7 0-.5-.7-.9-2.1-1.3 1.2-2.7 1.8-5.8 1.8-8.9 0-4-1-7.8-2.9-11.1-2.1-6.2-7.5-10.6-13.7-11.1l-.8-.4a1.79 1.79 0 0 0 1.8-1.8v-.8h7.3c1.5 0 2.8-1.3 2.8-2.8v-2.2c0-1.1-.9-2-2-2h-7.3a1.58 1.58 0 0 0-1.6 1.6v4.7h-1.6l-7.1-18.2c-3.5-8.8-5.8-9.4-11.4-10.6l-3.2-.3c-13-1.2-26-1.9-39-2-13 .1-26 .8-39 2l-3.2.3c-5.6 1.2-8 1.8-11.4 10.6L247 81.9h-2.1v-4.7a1.58 1.58 0 0 0-1.6-1.6H236c-1.1 0-2 .9-2 2v2.2c0 1.5 1.3 2.8 2.8 2.8h7.3v.8a1.79 1.79 0 0 0 1.8 1.8l-1.4.7h.1c-5.4 1.2-9.9 5.3-11.7 10.8-1.8 3.3-2.9 7.1-2.9 11.1 0 3.1.6 6 1.7 8.7-2 .5-3.1 1.1-3.1 1.6 0 .6 1.2 1.2 3.4 1.7v12.9h13.6l123.5-.1h0zm-12.2-19c-1.4 1.8-3.6 2.9-5.9 2.9h-86.7c-2.3 0-4.4-1-5.8-2.8s-2-4-1.5-6.3l2-9.1c.7-3.4 3.8-5.9 7.4-5.9l41.8-.8 40.5.8a7.37 7.37 0 0 1 7.2 5.7l2.4 8.9c.5 2.4 0 4.8-1.4 6.6zm7.2-32.2c-.1 0-.1 0 0 0h0-.4c-17.6-1.8-36.6-2.7-56.4-2.7-18.8 0-36.9.8-53.8 2.4h-.1c-.7.1-1.5.1-2.2.2h-.2-.2-.3l6.4-16.3c2.8-7.1 3.8-7.4 8.7-8.4l3-.3c9.6-.9 19.4-1.5 29.1-1.8l10-.2c12.9.1 25.9.8 38.7 2l3 .3c4.9 1 5.9 1.3 8.7 8.4l6.4 16.3-.4.1h0zm-14.8 19.5a2.79 2.79 0 0 0-2.7-2.1l-38.4-.5-39.9.5c-1.3 0-2.5.9-2.7 2.2l-1.2 5.5c-.4 1.7 1 3.3 2.7 3.3h81.1c1.8 0 3.1-1.7 2.7-3.5l-1.6-5.4z"/><path d="M313.8 108.2h-12.5a4.23 4.23 0 0 1-4.2-4.2v-.1a4.23 4.23 0 0 1 4.2-4.2h12.5a4.23 4.23 0 0 1 4.2 4.2v.1a4.16 4.16 0 0 1-4.2 4.2zm-12.5-7.5c-1.8 0-3.2 1.4-3.2 3.2v.1c0 1.8 1.4 3.2 3.2 3.2h12.5c1.8 0 3.2-1.4 3.2-3.2v-.1c0-1.8-1.4-3.2-3.2-3.2h-12.5zm4.7 4.4l.5 1.8h1.4l.8-2.5 6-2.7-8.9 1.3v-2.1l-4.1 2.9h3.5v.1c.1.6.4 1 .8 1.2z" fill="#fff"/><path d="M348.8 59.8h0l-2.8-.3c-12.7-1.2-25.7-1.9-38.4-2-12.7.1-25.6.8-38.3 2l-2.8.3h0c-4.1.9-4.2 1-6.4 6.6L255.6 78c0 .1 0 .2.2.2 11-1 22.5-1.6 34.4-2 .1 0 .2-.1.2-.2v-2c0-.7-.6-1.3-1.3-1.3h-15.3c-.7 0-1.3.6-1.3 1.3v.4c0 .1-.1.2-.2.2h-1.5c-.1 0-.1-.1-.2-.1-.3-1.3-.6-2.6-1.1-3.9a40.79 40.79 0 0 0-2.3-5.1v-.2c.8-1.6 1.7-1.9 4-2.4h0l2.5-.3c11.2-1.2 22.6-1.9 33.8-2 6.6.1 13.3.4 20 .8.1 0 .2.1.1.2-.6 1.2-.5 2.7-.5 4.1 0 2.3.4 4.4 1.8 5.9.1.1.1.2-.1.3-2.1.9-3.7 2.3-4.4 3.9-.1.1 0 .2.2.3 12.1.3 23.9 1 35.2 2 .1 0 .2-.1.2-.2l-4.5-11.6c-2.6-5.5-2.7-5.6-6.7-6.5zm-1.3 5.6c-.4.7-.8 1.5-1.2 2.3-1 2-1.7 4-2.1 6 0 .1-.2.2-.3.1-1.1-1-2.6-1.8-4.4-2.3-.1 0-.2-.2-.1-.3 1.1-1.4 1.3-3.1 1.3-5.2 0-.9-.1-1.5.1-2.7.2-.2.3-.3.5-.6l2.2.2h0c2.2.5 3.1.8 3.9 2.3.1.1.1.2.1.2z"/><g fill="#fff"><circle cx="245.9" cy="128.9" r="4.6"/><circle cx="369.7" cy="128.9" r="4.6"/><circle cx="241.7" cy="106.8" r="9.5"/><circle cx="374.7" cy="106.4" r="9.5"/></g><g enable-background="new"><path d="M19.7 168c1.9.9 3.4 2.1 4.4 3.6 1 1.6 1.5 3.4 1.5 5.6 0 2.1-.5 4-1.5 5.6s-2.5 2.8-4.4 3.6c-1.9.9-4.1 1.3-6.7 1.3H8v7.4H0v-28.4h13c2.5 0 4.8.5 6.7 1.3zm-3.5 12.3c.8-.7 1.3-1.7 1.3-3.1 0-1.3-.4-2.4-1.3-3.1-.8-.7-2.1-1.1-3.7-1.1H8v8.3h4.5c1.6.1 2.9-.3 3.7-1zm27.4 8.9c.8-.3 1.5-.8 2.3-1.5l4 4.2c-2.1 2.4-5.2 3.6-9.3 3.6-2.6 0-4.8-.5-6.8-1.5-1.9-1-3.5-2.3-4.5-4.1s-1.6-3.7-1.6-5.9.5-4.1 1.6-5.8 2.5-3.1 4.4-4c1.9-1 3.9-1.5 6.2-1.5 2.1 0 4.1.4 5.9 1.3s3.2 2.2 4.2 3.9 1.6 3.7 1.6 6l-15.7 3c.8 1.8 2.5 2.6 5 2.6 1 .1 1.9 0 2.7-.3zm-7-9.7c-.8.8-1.3 2-1.4 3.5l8.9-1.7c-.3-.9-.8-1.7-1.5-2.2-.8-.6-1.7-.8-2.7-.8-1.3 0-2.4.4-3.3 1.2z"/><use href="#C"/><path d="M93.5 173.5c1.3-.5 2.7-.8 4.3-.8v6.9c-.7-.1-1.3-.1-1.7-.1-1.6 0-2.9.4-3.9 1.3-.9.9-1.4 2.3-1.4 4.1V195h-7.7v-22h7.3v2.6c.9-.8 1.9-1.6 3.1-2.1zm42.7-8.5v30.1h-7.3v-2.2c-1.4 1.7-3.6 2.6-6.4 2.6-2 0-3.8-.5-5.5-1.4-1.6-.9-3-2.3-3.9-4-1-1.7-1.4-3.7-1.4-6s.5-4.3 1.4-6a11.5 11.5 0 0 1 3.9-4c1.6-.9 3.5-1.4 5.5-1.4 2.6 0 4.6.8 6.1 2.3v-10h7.6 0zm-8.8 23c.9-.9 1.3-2.2 1.3-3.9 0-1.6-.4-2.9-1.3-3.8s-2-1.4-3.3-1.4c-1.4 0-2.5.5-3.3 1.4-.9.9-1.3 2.2-1.3 3.8s.4 2.9 1.3 3.9c.9.9 2 1.4 3.3 1.4s2.4-.5 3.3-1.4zm28.3 1.2c.8-.3 1.5-.8 2.3-1.5l4 4.2c-2.1 2.4-5.2 3.6-9.3 3.6-2.6 0-4.8-.5-6.8-1.5-1.9-1-3.5-2.3-4.5-4.1s-1.6-3.7-1.6-5.9.5-4.1 1.6-5.8 2.5-3.1 4.4-4c1.9-1 3.9-1.5 6.2-1.5 2.1 0 4.1.4 5.9 1.3s3.2 2.2 4.2 3.9 1.6 3.7 1.6 6l-15.7 3c.8 1.8 2.5 2.6 5 2.6 1 .1 1.9 0 2.7-.3zm-6.9-9.7c-.8.8-1.3 2-1.4 3.5l8.9-1.7c-.3-.9-.8-1.7-1.5-2.2-.8-.6-1.7-.8-2.7-.8-1.4 0-2.5.4-3.3 1.2zm32.4 13.9c-1.5-1.4-2.2-3.4-2.2-6V165h7.7v22c0 .8.2 1.4.6 1.9.4.4 1 .6 1.8.6.6 0 1.2-.1 1.7-.4l.3 5.8c-1.2.4-2.4.6-3.6.6-2.7 0-4.8-.7-6.3-2.1zm35.5-20.3v22h-7.3v-2.2c-1.4 1.7-3.6 2.6-6.5 2.6-2 0-3.8-.5-5.5-1.4-1.6-.9-2.9-2.3-3.9-4s-1.4-3.7-1.4-6 .5-4.3 1.4-6a11.5 11.5 0 0 1 3.9-4c1.6-.9 3.5-1.4 5.5-1.4 2.6 0 4.6.8 6.1 2.3v-1.9h7.7 0zm-8.8 14.9c.9-.9 1.3-2.2 1.3-3.9 0-1.6-.4-2.9-1.3-3.8s-2-1.4-3.3-1.4c-1.4 0-2.5.5-3.3 1.4-.9.9-1.3 2.2-1.3 3.8s.4 2.9 1.3 3.9 2 1.4 3.3 1.4 2.4-.5 3.3-1.4zm30.3 6c-1.9-1-3.4-2.3-4.5-4.1s-1.6-3.7-1.6-5.9.5-4.1 1.6-5.9c1.1-1.7 2.6-3.1 4.5-4 1.9-1 4.1-1.4 6.5-1.4 2.5 0 4.6.5 6.4 1.6s3.1 2.5 3.9 4.4l-6 3c-1-2-2.5-3-4.4-3-1.4 0-2.5.5-3.4 1.4s-1.4 2.2-1.4 3.8.5 2.9 1.4 3.9c.9.9 2 1.4 3.4 1.4 1.9 0 3.4-1 4.4-3l6 3c-.8 1.9-2 3.4-3.9 4.4s-4 1.6-6.4 1.6c-2.4.3-4.6-.2-6.5-1.2zm24.1 0c-1.9-1-3.4-2.3-4.4-4.1s-1.6-3.7-1.6-5.9.5-4.1 1.6-5.8 2.5-3.1 4.4-4c1.9-1 4-1.4 6.4-1.4s4.5.5 6.4 1.4c1.9 1 3.4 2.3 4.4 4 1.1 1.7 1.6 3.7 1.6 5.9s-.5 4.1-1.6 5.9c-1.1 1.7-2.5 3.1-4.4 4.1s-4 1.5-6.4 1.5c-2.4-.1-4.5-.6-6.4-1.6zm9.7-6c.9-.9 1.3-2.2 1.3-3.9 0-1.6-.4-2.9-1.3-3.8s-2-1.4-3.3-1.4c-1.4 0-2.5.5-3.3 1.4-.9.9-1.3 2.2-1.3 3.8s.4 2.9 1.3 3.9c.9.9 2 1.4 3.3 1.4s2.5-.5 3.3-1.4zm33.6-12.8c1.7 1.6 2.5 4.1 2.5 7.3v12.6h-7.7v-11.3c0-3-1.2-4.5-3.6-4.5-1.3 0-2.4.4-3.2 1.3s-1.2 2.2-1.2 3.9v10.6h-7.7v-22h7.3v2.4c.9-.9 1.9-1.6 3.1-2 1.2-.5 2.5-.7 3.9-.7 2.7 0 4.9.8 6.6 2.4zm31-10.2v30.1h-7.3v-2.2c-1.4 1.7-3.6 2.6-6.4 2.6-2 0-3.8-.5-5.5-1.4-1.6-.9-3-2.3-3.9-4-1-1.7-1.4-3.7-1.4-6s.5-4.3 1.4-6 2.3-3 3.9-4c1.6-.9 3.5-1.4 5.5-1.4 2.6 0 4.6.8 6.1 2.3v-10h7.6 0zm-8.9 23c.9-.9 1.3-2.2 1.3-3.9 0-1.6-.4-2.9-1.3-3.8s-2-1.4-3.3-1.4c-1.4 0-2.5.5-3.3 1.4-.9.9-1.3 2.2-1.3 3.8s.4 2.9 1.3 3.9c.9.9 2 1.4 3.3 1.4s2.4-.5 3.3-1.4z"/><use href="#C" x="286.4"/><path d="M370 169.5a3.74 3.74 0 0 1-1.3-2.9 3.74 3.74 0 0 1 1.3-2.9c.9-.8 2-1.2 3.4-1.2s2.5.4 3.4 1.1 1.3 1.7 1.3 2.9-.4 2.2-1.3 3-2 1.2-3.4 1.2-2.5-.4-3.4-1.2zm-.5 3.6h7.7v22h-7.7v-22zm26.9 21.1c-.6.4-1.4.7-2.4.9-.9.2-1.9.3-3 .3-2.9 0-5.1-.7-6.6-2.1s-2.3-3.5-2.3-6.3v-18.8h7.7v5.7h5v5.8h-5v7.3c0 .8.2 1.4.6 1.9.4.4 1 .6 1.7.6.9 0 1.7-.2 2.4-.7l1.9 5.4zm16.8-5c.8-.3 1.5-.8 2.3-1.5l4 4.2c-2.1 2.4-5.2 3.6-9.3 3.6-2.6 0-4.8-.5-6.8-1.5s-3.5-2.3-4.5-4.1-1.6-3.7-1.6-5.9.5-4.1 1.6-5.8 2.5-3.1 4.4-4 3.9-1.5 6.2-1.5c2.1 0 4.1.4 5.9 1.3s3.2 2.2 4.2 3.9 1.6 3.7 1.6 6l-15.7 3c.8 1.8 2.5 2.6 5 2.6 1 .1 1.9 0 2.7-.3zm-6.9-9.7c-.8.8-1.3 2-1.4 3.5l8.9-1.7c-.3-.9-.8-1.7-1.5-2.2-.8-.6-1.7-.8-2.7-.8-1.4 0-2.5.4-3.3 1.2z"/></g><defs ><path id="C" d="M78.2 173.1v22h-7.3v-2.4c-.8.9-1.8 1.6-2.9 2-1.1.5-2.3.7-3.6.7-2.8 0-5.1-.8-6.8-2.5s-2.5-4.2-2.5-7.5v-12.3h7.7v11c0 1.6.3 2.9.9 3.6.6.8 1.5 1.1 2.7 1.1s2.2-.4 3-1.3 1.2-2.2 1.2-3.9V173l7.6.1h0z"/></defs></svg>