<?xml version="1.0" encoding="utf-8"?>
<!-- Generator: Adobe Illustrator 25.2.0, SVG Export Plug-In . SVG Version: 6.00 Build 0)  -->
<!DOCTYPE svg PUBLIC "-//W3C//DTD SVG 1.1//EN" "http://www.w3.org/Graphics/SVG/1.1/DTD/svg11.dtd" [
	<!ENTITY ns_extend "http://ns.adobe.com/Extensibility/1.0/">
	<!ENTITY ns_ai "http://ns.adobe.com/AdobeIllustrator/10.0/">
	<!ENTITY ns_graphs "http://ns.adobe.com/Graphs/1.0/">
	<!ENTITY ns_vars "http://ns.adobe.com/Variables/1.0/">
	<!ENTITY ns_imrep "http://ns.adobe.com/ImageReplacement/1.0/">
	<!ENTITY ns_sfw "http://ns.adobe.com/SaveForWeb/1.0/">
	<!ENTITY ns_custom "http://ns.adobe.com/GenericCustomNamespace/1.0/">
	<!ENTITY ns_adobe_xpath "http://ns.adobe.com/XPath/1.0/">
]>
<svg version="1.1" id="Calque_1" xmlns:x="&ns_extend;" xmlns:i="&ns_ai;" xmlns:graph="&ns_graphs;"
	 xmlns="http://www.w3.org/2000/svg" xmlns:xlink="http://www.w3.org/1999/xlink" x="0px" y="0px" viewBox="0 0 474.5 90"
	 style="enable-background:new 0 0 474.5 90;" xml:space="preserve">
<style type="text/css">
	.st0{fill:url(#SVGID_1_);}
	.st1{fill:#FFFFFF;}
	.st2{fill:url(#SVGID_2_);}
	.st3{fill:url(#SVGID_3_);}
	.st4{fill:url(#SVGID_4_);}
	.st5{fill:url(#SVGID_5_);}
	.st6{fill:#1A6DE5;}
	.st7{fill:#FFFFFF;stroke:#1D1D1B;stroke-miterlimit:10;}
	.st8{fill:#FFFFFF;stroke:#000000;stroke-miterlimit:10;}
	.st9{fill:#FFFFFF;stroke:#1D1D1B;stroke-width:0.25;stroke-miterlimit:10;}
</style>
<metadata>
	<sfw  xmlns="&ns_sfw;">
		<slices></slices>
		<sliceSourceBounds  bottomLeftOrigin="true" height="121" width="506" x="-307" y="325"></sliceSourceBounds>
	</sfw>
</metadata>
<g>
	
		<image style="overflow:visible;opacity:0.33;" width="506" height="121" xlink:href="8F10F692.png"  transform="matrix(1 0 0 1 -8.901 -8.4805)">
	</image>
	<g>
		<g>
			<g>
				
					<linearGradient id="SVGID_1_" gradientUnits="userSpaceOnUse" x1="3.7799" y1="781.1428" x2="85.7861" y2="699.1365" gradientTransform="matrix(1 0 0 -1 0 784.929)">
					<stop  offset="0.149" style="stop-color:#009EE2"/>
					<stop  offset="0.858" style="stop-color:#1A6DE5"/>
				</linearGradient>
				<path class="st0" d="M0,13.7v62.7C0,83.9,6.1,90,13.7,90h62.7C83.9,90,90,83.9,90,76.3V13.7C90,6.1,83.9,0,76.3,0H13.7
					C6.1,0,0,6.1,0,13.7z"/>
				<path class="st1" d="M76.9,41.1c0.8,0.1,2.8-0.6,3.9-1.6c0.6-0.5,0.9-1,0.9-1.6c0-3.2-3.5-3.2-4.7-3.2c-1.7,0-3.6,0.8-4.3,2.1
					l-3.6-8.4c-2-4.6-6.2-7.5-10.7-7.5l-3.7-0.1c-0.2-1.9-1.8-3.3-3.7-3.3H39.2c-1.9,0-3.4,1.4-3.7,3.2l-3.8,0.1
					C27.2,21,23,24,21,28.5l-3.6,8.4c-0.7-1.3-2.7-2.1-4.4-2.1c-1.2,0-4.7,0-4.7,3.2c0,0.5,0.3,1.1,0.9,1.6c1.1,1,3.1,1.7,3.9,1.6
					l1.2-0.2l0.1,0.2c-2.7,1.4-4.1,3-4.4,4.9V68c0,2.4,1.9,4.5,4.2,4.5h3.1c2.2,0,4-1.8,4.2-4.1v-0.5h47v0.5l0,0
					c0.2,2.3,2,4.1,4.2,4.1h3.1c2.3,0,4.2-2.1,4.2-4.5V45.9c-0.3-1.9-1.7-3.5-4.4-4.8l0.1-0.2L76.9,41.1L76.9,41.1z"/>
				
					<linearGradient id="SVGID_2_" gradientUnits="userSpaceOnUse" x1="23.2883" y1="739.6597" x2="14.3003" y2="730.6707" gradientTransform="matrix(1 0 0 -1 0 784.929)">
					<stop  offset="0" style="stop-color:#009EE2"/>
					<stop  offset="0.25" style="stop-color:#38A4DD"/>
					<stop  offset="0.5" style="stop-color:#339BD6"/>
					<stop  offset="0.775" style="stop-color:#2B8BCB"/>
					<stop  offset="1" style="stop-color:#1A6DE5"/>
				</linearGradient>
				<path class="st2" d="M16.8,45.1c-4.9-0.4-5.1,7.1-0.2,8c2.5,0.3,9.1,1.2,9.3-3.2C25.9,46.5,21.7,45.5,16.8,45.1z"/>
				
					<linearGradient id="SVGID_3_" gradientUnits="userSpaceOnUse" x1="66.8117" y1="739.6597" x2="75.7997" y2="730.6707" gradientTransform="matrix(1 0 0 -1 0 784.929)">
					<stop  offset="0" style="stop-color:#009EE2"/>
					<stop  offset="0.25" style="stop-color:#38A4DD"/>
					<stop  offset="0.5" style="stop-color:#339BD6"/>
					<stop  offset="0.775" style="stop-color:#2B8BCB"/>
					<stop  offset="0.967" style="stop-color:#1A6DE5"/>
				</linearGradient>
				<path class="st3" d="M64.2,49.9c0.2,4.4,6.8,3.5,9.3,3.2c4.9-0.9,4.7-8.4-0.2-8S64.2,46.5,64.2,49.9z"/>
				
					<linearGradient id="SVGID_4_" gradientUnits="userSpaceOnUse" x1="39.6203" y1="721.1527" x2="50.0193" y2="731.5527" gradientTransform="matrix(1 0 0 -1 0 784.929)">
					<stop  offset="0" style="stop-color:#1A6DE5"/>
					<stop  offset="0.25" style="stop-color:#38A4DD"/>
					<stop  offset="0.565" style="stop-color:#339BD6"/>
					<stop  offset="0.775" style="stop-color:#2B8BCB"/>
					<stop  offset="1" style="stop-color:#1A6DE5"/>
				</linearGradient>
				<path class="st4" d="M48.9,62.1c2.4,0,4.4-2.2,4.5-4.8H36.8c0,2.6,2.2,4.8,4.7,4.8H48.9z"/>
				
					<linearGradient id="SVGID_5_" gradientUnits="userSpaceOnUse" x1="28.045" y1="765.226" x2="59.913" y2="733.357" gradientTransform="matrix(1 0 0 -1 0 784.929)">
					<stop  offset="0" style="stop-color:#1A6DE5"/>
					<stop  offset="0.25" style="stop-color:#38A4DD"/>
					<stop  offset="0.565" style="stop-color:#339BD6"/>
					<stop  offset="0.775" style="stop-color:#2B8BCB"/>
					<stop  offset="0.967" style="stop-color:#1A6DE5"/>
					<stop  offset="1" style="stop-color:#009EE2"/>
				</linearGradient>
				<path class="st5" d="M51.4,37.9c2.6,0,11.6,0.2,18.7,2v-0.3L66,30.1c-1.4-3.3-4.5-5.5-7.8-5.5l-11.5-0.4h-3.4l-11.5,0.4
					c-3.3,0-6.3,2.1-7.8,5.5l-4.3,9.5v0.3c7.1-1.8,16.1-2,18.7-2C38.4,37.9,51.4,37.9,51.4,37.9z"/>
			</g>
			<g>
				<path class="st6" d="M114.7,41.6V9.9h2.2v7.4l-0.5,4.2l0.5,4v16.1H114.7z M126.4,33.2c-2,0-4-0.5-5.4-1.5c-1.7-1-3-2.2-4-4
					c-1-1.7-1.5-4-1.5-6.2c0-2.5,0.5-4.5,1.5-6.2c1-1.7,2.2-3.2,4-4c1.7-1,3.5-1.5,5.4-1.5c2.2,0,4.2,0.5,5.9,1.5
					c1.7,1,3.2,2.5,4.2,4.2c1,1.7,1.5,3.7,1.5,6.2c0,2.2-0.5,4.5-1.5,6.2c-1,1.7-2.5,3.2-4.2,4.2C130.6,32.7,128.6,33.2,126.4,33.2z
					 M126.4,31.2c1.7,0,3.5-0.5,4.7-1.2c1.5-0.7,2.5-2,3.5-3.5c1-1.5,1.2-3.2,1.2-5.2s-0.5-3.7-1.2-5.2c-1-1.2-2-2.5-3.5-3.2
					c-1.5-0.7-3-1.2-4.7-1.2c-1.7,0-3.5,0.5-4.7,1.2c-1.5,0.7-2.7,2-3.5,3.5c-1,1.5-1.2,3.2-1.2,5.2s0.5,3.7,1.2,5.2
					c0.7,1.5,2,2.7,3.2,3.5C122.7,31,124.4,31.2,126.4,31.2z"/>
				<path class="st6" d="M154.4,33.2c-2.2,0-4.5-0.5-6.2-1.5c-1.7-1-3.2-2.5-4.2-4.2c-1-1.7-1.5-3.7-1.5-6.2c0-2.2,0.5-4.5,1.5-6.2
					c1-1.7,2.2-3.2,4-4.2c1.7-1,3.7-1.5,5.7-1.5c2,0,4,0.5,5.7,1.5c1.7,1,3,2.5,4,4.2c1,1.7,1.5,3.7,1.5,6.2v0.2v0.2h-20.6v-1.5
					h19.3l-1,0.7c0-1.7-0.2-3.5-1.2-5c-1-1.5-1.7-2.5-3.2-3.5c-1.2-0.7-3-1.2-4.7-1.2c-1.7,0-3.2,0.5-4.7,1.2
					c-1.2,0.7-2.5,2-3.2,3.5c-0.7,1.5-1,3.2-1,5v0.5c0,2,0.5,3.5,1.2,5c0.7,1.5,2,2.7,3.5,3.5c1.5,0.7,3.2,1.2,5.2,1.2
					c1.5,0,3-0.2,4.2-0.7c1.2-0.5,2.5-1.2,3.2-2.5l1.2,1.5c-1,1.2-2.2,2.2-3.7,2.7C157.8,33,156.1,33.2,154.4,33.2z"/>
				<path class="st6" d="M180.9,33.2c-2,0-3.7-0.2-5.2-1c-1.5-0.7-2.5-1.7-3.5-3.2c-0.7-1.5-1.2-3.2-1.2-5.5V9.9h2.2v13.4
					c0,2.7,0.7,4.7,2,5.9c1.2,1.5,3.2,2,5.7,2c1.7,0,3.2-0.2,4.5-1.2c1.2-0.7,2.2-1.7,3-3.2c0.7-1.2,1-3,1-4.7V9.9h2.2v23.3h-2.2
					v-6.4l0.2,0.7c-0.7,1.7-1.7,3.2-3.5,4.2C185.1,32.7,183.1,33.2,180.9,33.2z"/>
				<path class="st6" d="M201.2,33.2V9.9h2.2v6.4l-0.2-0.7c0.7-2,1.7-3.5,3.2-4.5c1.5-1,3.5-1.5,5.7-1.5v2.2h-0.2h-0.2
					c-2.5,0-4.7,0.7-5.9,2.5c-1.5,1.7-2.2,4-2.2,6.7v12.1H201.2z"/>
				<path class="st6" d="M231.9,33.2c-2.2,0-4.2-0.5-5.9-1.5c-1.7-1-3.2-2.5-4.2-4.2c-1-1.7-1.5-3.7-1.5-6.2c0-2.2,0.5-4.5,1.5-6.2
					c1-1.7,2.5-3.2,4.2-4.2c1.7-1,3.7-1.5,5.9-1.5c2,0,4,0.5,5.4,1.5c1.7,1,3,2.2,4,4c1,1.7,1.5,4,1.5,6.4c0,2.5-0.5,4.5-1.5,6.2
					c-1,1.7-2.2,3.2-4,4.2C235.8,32.7,233.8,33.2,231.9,33.2z M231.9,31.2c1.7,0,3.5-0.5,4.7-1.2c1.5-0.7,2.5-2,3.5-3.5
					c0.7-1.5,1.2-3.2,1.2-5.2s-0.5-3.7-1.2-5.2c-0.7-1.5-2-2.7-3.5-3.5c-1.5-0.7-3-1.2-4.7-1.2c-1.7,0-3.5,0.5-4.7,1.2
					c-1.5,0.7-2.5,2-3.5,3.5c-0.7,1.5-1.2,3.2-1.2,5.2s0.5,3.7,1.2,5.2c0.7,1.5,2,2.7,3.5,3.5C228.6,31,230.1,31.2,231.9,31.2z
					 M241.3,33.2v-7.7l0.5-4l-0.5-4.2V0h2.2v33.2H241.3z"/>
				<path class="st6" d="M262.3,33.2c-2.2,0-4.5-0.5-6.2-1.5c-1.7-1-3.2-2.5-4.2-4.2c-1-1.7-1.5-3.7-1.5-6.2c0-2.2,0.5-4.5,1.5-6.2
					c1-1.7,2.2-3.2,4-4.2c1.7-1,3.7-1.5,5.7-1.5c2,0,4,0.5,5.7,1.5c1.7,1,3,2.5,4,4.2c1,1.7,1.5,3.7,1.5,6.2v0.2v0.2h-20.5v-1.5
					h19.3l-1,0.7c0-1.7-0.2-3.5-1.2-5c-1-1.5-1.7-2.5-3.2-3.5c-1.2-0.7-3-1.2-4.7-1.2s-3.2,0.5-4.7,1.2c-1.2,0.7-2.5,2-3.2,3.5
					c-0.7,1.5-1.2,3-1.2,5v0.5c0,2,0.5,3.5,1.2,5c0.7,1.5,2,2.7,3.5,3.5c1.5,0.7,3.2,1.2,5.2,1.2c1.5,0,3-0.2,4.2-0.7
					c1.2-0.5,2.5-1.2,3.2-2.5l1.2,1.5c-1,1.2-2.2,2.2-3.7,2.7C265.8,33,264,33.2,262.3,33.2z"/>
				<path class="st6" d="M291,33.2V0h2.2v33.2H291z"/>
				<path class="st6" d="M308.9,33.2c-1.7,0-3.2-0.2-4.5-0.7c-1.2-0.5-2.2-1.2-3-2.2c-0.7-1-1-2.2-1-3.5s0.2-2.2,0.7-3.2
					c0.5-1,1.5-1.7,2.7-2.5c1.2-0.5,3-1,5.2-1h8.7v1.7h-8.4c-2.5,0-4.2,0.5-5,1.2c-0.7,0.7-1.5,2-1.5,3.5c0,1.5,0.5,2.7,1.7,3.5
					c1.2,0.7,2.7,1.2,4.7,1.2c2,0,3.7-0.5,5-1.2c1.2-1,2.5-2.2,3-4l0.7,1.5c-0.7,1.7-1.7,3-3.2,4C313.1,32.7,311.1,33.2,308.9,33.2z
					 M317.3,33.2V28v-0.7v-8.9c0-2.2-0.5-3.7-1.7-5c-1.2-1.2-3-1.7-5.2-1.7c-1.5,0-3.2,0.2-4.5,0.7c-1.5,0.5-2.5,1.2-3.5,2.2
					l-1.2-1.5c1.2-1,2.5-1.7,4.2-2.5c1.5-0.7,3.2-1,5-1c3,0,5.2,0.7,6.7,2.2c1.5,1.5,2.2,3.7,2.2,6.4v14.9H317.3z"/>
				<path d="M423,81c-0.7-0.7-1-1.5-1-2.5c0-1,0.2-1.7,1-2.5c0.7-0.7,1.5-1,2.5-1c1,0,2,0.2,2.7,1c0.7,0.7,1,1.5,1,2.5
					c0,1-0.2,1.7-1,2.5c-0.7,0.7-1.5,1-2.7,1S423.7,81.8,423,81z"/>
				<path class="st6" d="M463.9,57.2V82h2.2V69.1c0-3.2,0.7-5.7,2.2-7.7c1.5-1.7,3.5-2.7,6.2-2.7v-2.2c-2.2,0-4.2,0.5-5.9,1.7
					c-1.2,0.7-2,2-2.7,3.2v-4h-2V57.2z"/>
				<path class="st6" d="M442.6,52.3c1.7-1.7,4.2-2.5,7.7-2.5c3.2,0,5.9,1,7.9,2.5l1-1.7c-2.2-2-5.2-3-9.2-3c0,0-0.5,0-0.7,0
					c-3.7,0-6.7,1-8.7,3c-2,2-3,4.7-3,8.2V82h2.2V67.1h16.1v-2h-16.1v-5.7C440.1,56.2,441.1,54,442.6,52.3z"/>
				<path d="M122.9,80.3c-2.7-1.2-4.7-3-6.2-5.5c-1.5-2.2-2.2-5-2.2-8.2c0-3.7,1-7.2,2.7-10.2c1.7-3,4.2-5.5,7.4-7.2
					c3.2-1.7,6.9-2.7,10.9-2.7c3.7,0,6.9,0.7,9.4,2.2c2.7,1.5,4.7,3.7,5.9,6.4l-8.2,4.2c-1.5-3.2-4-4.7-7.7-4.7
					c-2,0-3.7,0.5-5.2,1.5c-1.5,1-2.7,2.2-3.7,4c-1,1.7-1.2,3.7-1.2,5.9c0,2.2,0.7,4.2,2.2,5.7c1.5,1.5,3.5,2,5.9,2
					c3.7,0,6.4-1.5,8.4-4.7l7.4,4.7c-1.7,2.7-4,4.7-6.9,6.2c-3,1.5-6.2,2.2-9.7,2.2C128.9,82,125.6,81.5,122.9,80.3z"/>
				<path d="M229.4,49.6c2.2,2,3.5,5,3.5,8.7c0,1.5-0.2,2.7-0.5,4.2l-3.7,19.1h-9.9l3.7-18.6c0.2-0.7,0.2-1.5,0.2-2.5
					c0-1.7-0.5-3.2-1.5-4.2c-1-1-2.5-1.5-4.5-1.5c-2.5,0-4.7,0.7-6.4,2.2c-1.7,1.5-2.7,3.7-3.5,6.7l-3.5,17.6h-9.9l6.7-34.2h9.4
					l-0.7,3.7c3-2.7,6.9-4.2,11.4-4.2C224.2,46.6,227.2,47.6,229.4,49.6z"/>
				<path d="M275.4,70.9c0,1,0.2,2,1,2.5c0.5,0.5,1.5,0.7,2.5,0.7c1.2,0,2.2-0.2,3-0.5l-1.2,7.7c-1.7,0.5-3.5,0.7-5.4,0.7
					c-2.5,0-4.5-0.5-5.9-1.5c-1.5-1-2.7-2.5-3.2-4.2c-1.5,1.7-3.2,3.2-5.2,4.2c-2,1-4.5,1.5-6.9,1.5c-2.7,0-5.2-0.5-7.4-2
					c-2.2-1.2-4-3-5.4-5.5c-1.5-2.5-2-5-2-8.2c0-3.7,0.7-7.2,2.5-10.4c1.7-3,4-5.5,6.9-7.2c3-1.7,6.2-2.5,9.7-2.5
					c2.5,0,4.7,0.5,6.7,1.2c2,0.7,3.5,2.2,4.5,4l3.5-17.8h9.9l-7.2,35.7C275.4,70.1,275.4,70.6,275.4,70.9z M262.1,72.3
					c1.5-1,2.7-2.2,3.5-4c0.7-1.7,1.2-3.7,1.2-5.9c0-2.2-0.7-4.2-2-5.7c-1.5-1.5-3.2-2-5.7-2c-2,0-3.7,0.5-5.2,1.5
					c-1.5,1-2.7,2.2-3.5,4c-0.7,1.7-1.2,3.7-1.2,5.9c0,2.2,0.7,4.2,2,5.7c1.5,1.5,3.2,2,5.7,2C258.8,73.8,260.6,73.3,262.1,72.3z"/>
				<path d="M328.9,73.6l-1,7.7c-1.7,0.5-3.5,0.7-5.4,0.7c-2.5,0-4.7-0.5-6.2-1.5c-1.7-1-2.7-2.5-3.2-4.2c-1.5,2-3.5,3.5-5.7,4.2
					c-2.2,1.2-4.5,1.5-6.9,1.5c-3.7,0-6.7-1-8.9-3c-2.2-2-3.5-5-3.5-8.7c0-1.5,0.2-2.7,0.5-4.2l3.7-19.1h9.9l-3.7,18.3
					c-0.2,0.7-0.2,1.7-0.2,2.5c0,3.5,2,5.5,5.7,5.5c2.5,0,4.7-0.7,6.2-2.2c1.7-1.5,2.7-3.7,3.5-6.7l3.5-17.6h9.9l-4.2,22.8
					c0,0.5-0.2,1-0.2,1.2c0,2.2,1.2,3.2,3.5,3.2C327.2,74.1,328.2,74.1,328.9,73.6z"/>
				<path d="M339.8,47.1h9.9l-6.9,34.4h-9.9L339.8,47.1z M342.3,40.9c-1-1-1.7-2.2-1.7-3.7c0-1.7,0.5-3.2,1.7-4.2
					c1.2-1,2.7-1.7,4.7-1.7c1.7,0,3.2,0.5,4.2,1.5c1,1,1.7,2.2,1.7,3.5c0,1.7-0.5,3.2-2,4.5c-1.2,1.2-2.7,1.7-4.7,1.7
					C344.8,42.4,343.3,41.9,342.3,40.9z"/>
				<path d="M364.3,69.4c0,0.2-0.2,0.7-0.2,1.5c0,2.2,1.2,3.2,3.5,3.2c1.5,0,2.7-0.5,4.2-1.2l1.5,7.2c-2.2,1.5-5.2,2-8.7,2
					c-3.2,0-5.9-0.7-7.7-2.5c-2-1.7-3-4-3-6.9c0-0.7,0-2,0.2-3l5.9-30h9.9l-1.7,8.4h8.4l-1.5,7.7h-8.4L364.3,69.4z"/>
				<path d="M410.4,50.5c3,2.7,4.5,6.4,4.5,11.6c0,0.7,0,1.5,0,2l-26.5,5c1,3.5,3.7,5.2,8.7,5.2c1.7,0,3.5-0.2,5-0.7
					c1.5-0.5,3-1.2,4.2-2.5l4.2,6.7c-2,1.5-4.2,2.7-6.7,3.5c-2.5,0.7-5.2,1.2-7.9,1.2c-3.5,0-6.7-0.7-9.4-2c-2.7-1.2-4.7-3-6.2-5.5
					c-1.5-2.2-2.2-5-2.2-8.2c0-3.7,0.7-7.2,2.5-10.4c1.7-3,4.2-5.5,7.2-7.2c3-1.7,6.7-2.5,10.6-2.5
					C403.4,46.6,407.4,48.1,410.4,50.5z M391.3,56.5c-1.7,1.7-2.7,3.7-3.2,6.4l17.3-3.2c-0.2-1.7-1-3.2-2.5-4.2
					c-1.2-1-3-1.5-5.2-1.5C395.3,54,393,55,391.3,56.5z"/>
				<path class="st7" d="M189.5,51c-2.5-1.7-5.4-2.2-7.9-1.5l0.2-4.7c0-1.7-1.7-3.7-3.5-3.2c-0.5,0-1,0.5-1,1l-0.2,11.1
					c0,0,0,0,0,0.2c-0.5,2.2,0.2,5,2.2,6.9c3.2,3,8.7,3.5,11.6,0.7C194.2,58.5,193.5,53.8,189.5,51z"/>
				<path class="st8" d="M157.8,54.8c1.7-1.5,4-2.2,5.7-1.7l0.2-4.2c0-1.5,1.2-2.5,2.7-2.5c0.2,0,0.7,0.5,0.5,1l-0.5,8.9
					c0.2,2-0.5,4-2.5,5.9c-2.7,2.5-6.2,2.5-8.2,0.5C154.1,60.7,155.1,57,157.8,54.8z"/>
				<path d="M160.3,80.3c-2.7-1.2-4.7-3-6.2-5.5c-1.5-2.2-2.2-5-2.2-8.2c0-3.7,1-7.2,2.7-10.2c1.7-3,4.2-5.5,7.4-7.2
					c3.2-1.7,6.7-2.7,10.6-2.7c3.5,0,6.4,0.7,9.2,2c2.7,1.2,4.7,3,5.9,5.5c1.5,2.2,2.2,5,2.2,8.2c0,3.7-1,7.2-2.7,10.2
					c-1.7,3-4.2,5.5-7.4,7.2c-3.2,1.7-6.7,2.7-10.6,2.7C166,82,163,81.5,160.3,80.3z M175.4,72.3c1.5-1,2.7-2.2,3.5-4
					c0.7-1.7,1.2-3.7,1.2-5.9c0-2.2-0.7-4.2-2-5.7c-1.5-1.5-3.2-2-5.7-2c-2,0-3.7,0.5-5.2,1.5c-1.5,1-2.7,2.2-3.5,4
					c-0.7,1.7-1.2,3.7-1.2,5.9c0,2.2,0.7,4.2,2,5.7c1.5,1.5,3.2,2,5.7,2C172.2,73.8,173.9,73.3,175.4,72.3z"/>
				<path class="st9" d="M158.3,49.3l-1.2,2c-0.2,0.2-0.2,0.5,0,0.5l4.2,5c0.2,0.2,0.2,0,0.5,0l1.2-2c0.2-0.2,0.2-0.5,0-0.7l-4.5-5
					C158.6,49.1,158.6,49.1,158.3,49.3z"/>
				<path class="st9" d="M155.6,52l-1,2c0,0.2,0,0.5,0,0.5l5.2,5.5c0.2,0,0.2,0,0.5,0l1.2-2c0.2-0.2,0.2-0.5,0-0.7l-5.2-5.5
					C155.8,51.8,155.8,51.8,155.6,52z"/>
				<path class="st9" d="M153.9,55.7l-1,2c0,0.2,0,0.5,0,0.5l4.5,3.7c0.2,0,0.2,0,0.5-0.2l1-2.2c0-0.2,0-0.5,0-0.7l-4.5-3.2
					C154.1,55.5,154.1,55.5,153.9,55.7z"/>
				<path class="st9" d="M153.1,60l-0.7,2c0,0.2,0,0.5,0,0.5l3,2.2c0.2,0,0.2,0,0.5-0.2l1-2.2c0-0.2,0-0.5-0.2-0.5l-3.2-2.2
					C153.4,59.7,153.4,59.7,153.1,60z"/>
				<path class="st8" d="M157.6,48.6l-0.7,0.5c-0.7,0.5-0.5,1.5,0,1.7l4.5,5.2c0.5,0.7,1.5,0.5,1.7,0l0.7-0.5c0.7-0.5,0.5-1.5,0-1.7
					l-4.7-5C158.8,48.1,157.8,48.1,157.6,48.6z"/>
				<path class="st8" d="M153.6,51l-0.5,0.7c-0.5,0.7-0.5,1.5,0,1.7l6.4,5.9c0.7,0.5,1.5,0.5,1.7,0l0.5-0.7c0.5-0.7,0.5-1.5,0-1.7
					l-6.4-5.9C154.9,50.5,154.1,50.3,153.6,51z"/>
				<path class="st8" d="M151.4,55.3l-0.5,0.7c-0.5,0.7-0.5,1.5,0,1.7l5.9,4.2c0.7,0.5,1.5,0.5,1.7,0l0.5-0.7c0.5-0.7,0.5-1.5,0-1.7
					l-5.7-4.2C152.9,54.5,151.6,54.8,151.4,55.3z"/>
				<path class="st8" d="M150.9,60l-0.5,0.7c-0.5,0.7-0.2,1.7,0.5,2l3.5,2.2c0.7,0.5,1.7,0.2,2-0.5l0.5-0.7c0.5-0.7,0.2-1.7-0.5-2
					l-3.2-2.2C152.1,59,151.4,59.2,150.9,60z"/>
				<path class="st7" d="M187.3,47.8l1.7,1.7c0.2,0.2,0,0.5-0.2,0.7l-8.4,6.2c-0.2,0.2-0.5,0.2-0.7,0l-1.5-1.7
					c-0.2-0.2,0-0.5,0.2-0.7l8.2-6.2C186.8,47.6,187.3,47.6,187.3,47.8z"/>
				<path class="st7" d="M191.3,50.3l1.7,2.2c0.2,0.2,0,0.5-0.2,0.7L181.6,60c-0.2,0.2-0.5,0-0.7,0l-1.2-2c0-0.2,0-0.5,0.2-0.7
					l10.9-6.7C190.8,50,191,50,191.3,50.3z"/>
				<path class="st7" d="M192.7,54.8l1.2,2.5c0.2,0.2,0,0.5-0.5,0.7l-10.2,4.2c-0.2,0.2-0.5,0-0.7-0.2l-1-2.2c0-0.2,0-0.5,0.2-0.7
					l9.9-4.5C192.2,54.5,192.7,54.5,192.7,54.8z"/>
				<path class="st7" d="M191.7,60l1,2.7c0,0.2,0,0.5-0.5,0.7l-7.2,1c-0.2,0-0.7,0-0.7-0.2l-0.7-1.5c0-0.2,0-0.5,0.5-0.7l6.9-2.2
					C191.3,59.5,191.7,59.7,191.7,60z"/>
				<path d="M168.2,68.6c-0.7-0.2-1.2-0.7-1.7-1.5c-0.5-0.7-0.5-1.2-0.5-2.2c0-1,0.2-2,0.7-2.7c0.5-0.7,1.2-1.5,2-2
					c0.7-0.5,1.7-0.7,3-0.7c1,0,1.7,0.2,2.5,0.5c0.7,0.2,1.2,0.7,1.7,1.5c0.5,0.7,0.5,1.2,0.5,2.2c0,1-0.2,2-0.7,2.7
					c-0.5,0.7-1.2,1.5-2,2c-0.7,0.5-1.7,0.7-3,0.7C170,69.1,169,69.1,168.2,68.6z M172.4,66.6c0.5-0.2,0.7-0.5,1-1
					c0.2-0.5,0.2-1,0.2-1.5c0-0.7-0.2-1.2-0.5-1.5c-0.5-0.7-1-0.7-1.7-0.7c-0.5,0-1,0.2-1.5,0.5c-0.5,0.2-0.7,0.5-1,1
					c-0.2,0.5-0.2,1-0.2,1.5c0,0.7,0.2,1.2,0.5,1.5c0.5,0.2,1,0.5,1.5,0.5C171.4,66.9,171.9,66.9,172.4,66.6z"/>
			</g>
		</g>
	</g>
</g>
</svg>
