<svg xmlns="http://www.w3.org/2000/svg" width="1656" height="555.6" fill="none"><g stroke-miterlimit="10"><use href="#A" stroke="#fff" stroke-width="41"/><use href="#A" stroke="#2c2b30" stroke-width="37"/><use href="#A" stroke="#fff" stroke-width="1.5" stroke-dasharray="6.9889,7.9873"/></g><defs><path id="A" d="M1629 0v363.6h0c0 29.8-24.2 54-54 54h0-132-5.2c-3.5.1-6.9.5-10.2 1.1-16.2 3-30.6 12.2-40.8 25.2l-25.3 32.4c-11.8 14-29.4 22.8-49.1 22.8-43.6-.7-58.4-33-70.7-68.4-16.2-46.6-30.7-93.3-85.6-94.2-11.3-.2-22.1 2.6-31.6 7.3-11.8 5.8-21.6 15-28.6 26.2l-14.4 23c-6.6 10.5-15.6 19.3-26.5 25.1-10.1 5.4-21.6 8.4-33.8 8.4h0c-26.8 0-50.3-14.7-62.6-36.5L907 307.9c-12.8-20.4-34.8-33.6-58.9-34.3H846h0c-39.8 0-72 32.2-72 72h0c0 25.6 13.3 48.1 33.5 60.8l60.2 37.5c13.7 8.5 22.7 23.2 23.3 39.4v1.8h0c0 27.3-22.2 49.5-49.5 49.5h0c-7.5 0-14.7-1.7-21-4.7l-9.9-4.6c-35.3-17.5-96.2-53.7-198.5-53.7H99c-39.6 0-72-32.4-72-72V0"/></defs><path d="M1415.7 401.2l-2.2-1.3V296l2.2.3v104.9zm77.6 43.7l-3.7-2.1V308.3l3.7.5v136.1z" fill="#020203"/><path d="M1489.6 368.8l-73.8-25.3v-41.9l73.8 13.4v53.8z" fill="#056734"/><path d="M1420.4 334.2l3.5-17.2 1.2.3 3.7 19.5-1.2-.4-3.3-17.9.5.1-3.2 16-1.2-.4zm1.5-4.1l.3-2 4.5 1.3.3 2.2-5.1-1.5zm8.2 7v-18.8l3.3.8a3.14 3.14 0 0 1 1.9 1.3c.5.7 1 1.5 1.2 2.6.3 1.1.5 2.3.5 3.7s-.1 2.5-.5 3.5c-.3.9-.7 1.6-1.2 1.9-.5.4-1.2.5-1.9.3l-2.6-.7.5-1.1v7l-1.2-.5zm1.2-6.3l-.5-1.5 2.6.7c.8.2 1.4 0 1.8-.7s.6-1.7.6-3c0-1.4-.2-2.5-.6-3.3-.4-.9-1-1.3-1.8-1.5l-2.6-.6.5-1.2v11.1zm4.5 8.1l-2.2-7.5 1.3.3 2.3 7.6-1.4-.4zm3.2.9v-19.4l3.5.8a3.93 3.93 0 0 1 2.1 1.3c.6.7 1 1.6 1.4 2.7.3 1.1.5 2.4.5 3.9s-.1 2.7-.5 3.6c-.3.9-.8 1.6-1.4 2s-1.3.5-2.1.3l-2.8-.8.6-1.1v7.2l-1.3-.5zm1.3-6.5l-.6-1.5 2.8.7c.8.2 1.5 0 1.9-.7.5-.7.6-1.7.6-3.1s-.2-2.5-.6-3.5c-.5-.9-1.1-1.4-1.9-1.6l-2.8-.7.6-1.3v11.7zm4.9 8.4l-2.3-7.9 1.4.4 2.4 7.9-1.5-.4zm3.4 1v-20l1.4.3v20.1l-1.4-.4zm7 2.1l-4.3-21.5 1.5.3 4 19.9-.9-.3 4.1-18 1.5.3-4.5 19.6-1.4-.3zm8.8 0l6.3 1.9v2.7l-7.8-2.3v-21l7.5 1.7v2.7l-6.1-1.5.1 15.8h0zm-.2-9.4l5.5 1.5v2.6l-5.5-1.5v-2.6zm1.3-10.5l2.1-3.5 1.9.4-2.6 3.4-1.4-.3zm9.3 22.9l6.7 2v2.8l-8.3-2.5v-21.7l8.1 1.9v2.8l-6.4-1.6v16.3zm-.2-9.7l5.9 1.5v2.7l-5.9-1.6v-2.6z" fill="#fff"/><path d="M465.7 498.4l-4 2.4-9-128 4.1-.9 8.9 126.5zM546 449l-2.3 1.4-6.8-96.2 2.3-.5L546 449z" fill="#020203"/><path d="M540 397.4l-79.2 31.3-3.6-50.6 80.1-19.2 2.7 38.5z" fill="#e94f1d"/><path d="M471.5 411.8l-1.4-20.8 5.3-1.5c1.3-.4 2.5-.3 3.6.3 1 .6 1.9 1.5 2.5 2.9.6 1.3 1 3 1.2 5s0 3.8-.4 5.5-1.1 3.1-2 4.3a7.06 7.06 0 0 1-3.4 2.5l-5.4 1.8zm1.7-3.3l3.4-1.2c1-.4 1.9-1 2.6-1.9s1.2-2 1.5-3.2.4-2.7.3-4.2-.4-2.8-.9-3.8-1.1-1.7-1.9-2.2c-.8-.4-1.7-.5-2.7-.2l-3.4 1 1.1 15.7zm14.2-4.9l6.6-2.3.2 2.4-8.2 2.9-1.4-19.9 8-2.3.2 2.4-6.4 1.9 1 14.9zm-.8-8.7l5.8-1.9.2 2.4-5.8 1.9-.2-2.4zm.7-10.5l2-4.3 2-.5-2.4 4.4-1.6.4zm9.4 18.4l-1.3-19.2 4.2-1.2c.9-.3 1.7-.3 2.4.1.7.3 1.2.9 1.7 1.8.4.9.7 2 .8 3.3s0 2.6-.3 3.7-.7 2-1.3 2.7-1.3 1.3-2.3 1.6l-3.3 1.1.6-1.5.5 7.1-1.7.5zm1-7.3l-.8-1.1 3.3-1.1c1-.3 1.7-.9 2.1-1.8s.6-2 .5-3.3-.4-2.3-.9-2.9c-.6-.6-1.3-.7-2.3-.5l-3.3 1 .6-1.5.8 11.2zm7.6 4.3l3.3-19.9 1.4-.4 5.7 16.7-1.4.5-5.1-15.5.6-.2-2.8 18.2-1.7.6zm1.6-5.3l.3-2.3 5.5-1.9.6 2-6.4 2.2zm10.1 1.1l-1.2-17.9 3.6-1c.8-.3 1.5-.2 2.1.2.6.3 1.1.9 1.4 1.7.4.8.6 1.9.7 3.1s0 2.4-.2 3.4c-.3 1-.6 1.9-1.1 2.5-.5.7-1.2 1.1-2 1.4l-2.9 1 .5-1.4.5 6.6-1.4.4zm.8-6.8l-.7-1 2.8-.9a3.14 3.14 0 0 0 1.8-1.6c.4-.8.5-1.9.4-3.1s-.4-2.2-.8-2.7c-.5-.6-1.1-.7-2-.5l-2.8.8.5-1.4.8 10.4zm5.3 4.6l-2.7-5.6 1.4-.5 2.7 5.5-1.4.6zm4.9-1.7l-1-15-3 .9-.2-2.2 7.1-2.1.2 2.1-2.9.9 1 14.9-1.2.5z" fill="#fff"/></svg>