<svg xmlns="http://www.w3.org/2000/svg" viewBox="0 0 90 90"><linearGradient id="A" gradientUnits="userSpaceOnUse" x1="3.783" y1="3.783" x2="85.783" y2="85.783"><stop offset=".149" stop-color="#009ee2"/><stop offset=".858" stop-color="#1a6de5"/></linearGradient><path d="M0 13.7v62.7C0 83.9 6.1 90 13.7 90h62.7C83.9 90 90 83.9 90 76.3V13.7C90 6.1 83.9 0 76.3 0H13.7C6.1 0 0 6.1 0 13.7z" fill="url(#A)"/><path d="M76.9 41.1c.8.1 2.8-.6 3.9-1.6.6-.5.9-1 .9-1.6 0-3.2-3.5-3.2-4.7-3.2-1.7 0-3.6.8-4.3 2.1l-3.6-8.4c-2-4.6-6.2-7.5-10.7-7.5l-3.7-.1c-.2-1.9-1.8-3.3-3.7-3.3H39.2c-1.9 0-3.4 1.4-3.7 3.2l-3.8.1C27.2 21 23 24 21 28.5l-3.6 8.4c-.7-1.3-2.7-2.1-4.4-2.1-1.2 0-4.7 0-4.7 3.2 0 .5.3 1.1.9 1.6 1.1 1 3.1 1.7 3.9 1.6l1.2-.2.1.2c-2.7 1.4-4.1 3-4.4 4.9V68c0 2.4 1.9 4.5 4.2 4.5h3.1c2.2 0 4-1.8 4.2-4.1v-.5h47v.5h0c.2 2.3 2 4.1 4.2 4.1h3.1c2.3 0 4.2-2.1 4.2-4.5V45.9c-.3-1.9-1.7-3.5-4.4-4.8l.1-.2 1.2.2z" fill="#fff"/><linearGradient id="B" gradientUnits="userSpaceOnUse" x1="23.313" y1="45.294" x2="14.325" y2="54.283"><stop offset="0" stop-color="#009ee2"/><stop offset=".25" stop-color="#38a4dd"/><stop offset=".5" stop-color="#339bd6"/><stop offset=".775" stop-color="#2b8bcb"/><stop offset="1" stop-color="#1a6de5"/></linearGradient><path d="M16.8 45.1c-4.9-.4-5.1 7.1-.2 8 2.5.3 9.1 1.2 9.3-3.2 0-3.4-4.2-4.4-9.1-4.8z" fill="url(#B)"/><linearGradient id="C" gradientUnits="userSpaceOnUse" x1="66.787" y1="45.294" x2="75.775" y2="54.283"><stop offset="0" stop-color="#009ee2"/><stop offset=".25" stop-color="#38a4dd"/><stop offset=".5" stop-color="#339bd6"/><stop offset=".775" stop-color="#2b8bcb"/><stop offset=".967" stop-color="#1a6de5"/></linearGradient><path d="M64.2 49.9c.2 4.4 6.8 3.5 9.3 3.2 4.9-.9 4.7-8.4-.2-8s-9.1 1.4-9.1 4.8z" fill="url(#C)"/><linearGradient id="D" gradientUnits="userSpaceOnUse" x1="39.62" y1="63.776" x2="50.019" y2="53.376"><stop offset="0" stop-color="#1a6de5"/><stop offset=".25" stop-color="#38a4dd"/><stop offset=".565" stop-color="#339bd6"/><stop offset=".775" stop-color="#2b8bcb"/><stop offset="1" stop-color="#1a6de5"/></linearGradient><path d="M48.9 62.1c2.4 0 4.4-2.2 4.5-4.8H36.8c0 2.6 2.2 4.8 4.7 4.8h7.4z" fill="url(#D)"/><linearGradient id="E" gradientUnits="userSpaceOnUse" x1="28.045" y1="19.703" x2="59.913" y2="51.572"><stop offset="0" stop-color="#1a6de5"/><stop offset=".25" stop-color="#38a4dd"/><stop offset=".565" stop-color="#339bd6"/><stop offset=".775" stop-color="#2b8bcb"/><stop offset=".967" stop-color="#1a6de5"/><stop offset="1" stop-color="#009ee2"/></linearGradient><path d="M51.4 37.9c2.6 0 11.6.2 18.7 2v-.3L66 30.1c-1.4-3.3-4.5-5.5-7.8-5.5l-11.5-.4h-3.4l-11.5.4c-3.3 0-6.3 2.1-7.8 5.5l-4.3 9.5v.3c7.1-1.8 16.1-2 18.7-2h13z" fill="url(#E)"/></svg>