<svg xmlns="http://www.w3.org/2000/svg" viewBox="0 0 1707.7 2957.4"><g fill="none"><g stroke-miterlimit="10"><use href="#A" stroke="#fff" stroke-width="41"/><use href="#A" stroke="#2c2b30" stroke-width="37"/></g><use href="#A" stroke="#fff" stroke-width="1.5" stroke-dasharray="6.9889,7.9873"/></g><defs><path id="A" d="M681.8 1010.9c0 49 39.7 88.8 88.7 88.8l803 .7c62.4.1 113 50.7 113 113.1v1611.3c0 61.6-49.9 111.5-111.5 111.5H132.5c-61.6 0-111.5-49.9-111.5-111.5V132.4C21 71 70.9 21.1 132.5 21.1l1270.1-.1c48.2 0 87.4 39.1 87.4 87.4v2.3c0 50.2-40.3 90.5-90 90.5l-632.7 1.7c-47.3.1-85.5 38.5-85.5 85.8v2.2c0 49.1 39.4 88.7 88.1 88.8l609.2 2.3c48.9.2 88.4 39.9 88.4 88.8h0c0 49-39.7 88.7-88.6 88.8L769 563.3c-48.2.3-87.2 39.5-87.2 87.7h0c0 48.8 39.5 88.4 88.3 88.6l608.9 2.3c48.9.2 88.5 40 88.5 88.9h0c0 49.1-39.7 88.8-88.8 88.9l-609.4 3.2c-48.4.3-87.5 39.6-87.5 88h0z"/></defs></svg>