<svg xmlns="http://www.w3.org/2000/svg" viewBox="0 0 1145 1145"><path d="M705.9 285.6l-.4 1 .4-1-3.1-1.4c-2-1-4.1-1.6-6.1-2.4l-3.1-1.2-1.8-.6-7.7-2.8-2.8-.8-4.7 14.3 2.9.8 7.1 2.6 1.6.6 3.1 1.2c1.8.6 3.7 1.4 5.5 2.2l3.3 1.4 13.8 6.3 2.8 1.4 6.7-13.6-2.6-1.4-14.9-6.6h0zM504.6 873.1l-2.9-.6-2.8 14.7 2.9.6c11.6 2 25.2 4.1 39.3 4.7l2.9.2.8-14.9-2.9-.2c-13.1-.5-26.3-2.5-37.3-4.5zm101.8-610.5l-2.9-.2-.8 14.9 2.9.2c13.2.6 26.3 2.6 37.3 4.5l2.9.6 2.8-14.7-2.9-.6c-11.6-1.9-25.3-4.1-39.3-4.7h0zM461.1 861.1l-1.6-.6-2.9-1.2h-.2c-1.8-.6-3.7-1.4-5.5-2.2l-3.3-1.4-13.8-6.3-2.8-1.4-6.7 13.6 2.6 1.4 14.7 6.9 3.1 1.4 6.1 2.4 3.1 1.2 1.6.6 7.9 2.8 2.8.8 4.7-14.3-2.9-.8-6.9-2.9h0zm-72.7-39.5h0l-2.8-2.2-3.7-2.8-13.2-11-10 11.2 13.8 11.4 3.9 2.9c1 .6 1.8 1.4 2.8 2l5.3 3.9 10.6 7.3 8.5-12.6-10.2-6.9c-1.8-.6-3.4-2-5-3.2zm-85.7-104.5l-1 .4 1-.4-5.3-12c-.4-1-.8-2.2-1.4-3.1l-2.2-5.5-4.1-11.6-14.2 4.9 4.3 12 2.4 6.1.2.4 1.2 2.8 5.7 12.8 2.4 5.1 1.2 2.8 13.4-6.7-1.2-2.6c-.6-2.1-1.6-3.7-2.4-5.4h0zm34.8 55.4l-2.4-2.8-3.7-4.9-2-2.8-5.3-7.5-1.6-2.6-12.4 8.5 1.6 2.4 5.7 8.1.2.2 2 2.8 3.9 5.3 2.4 2.8 10.4 12.4 2 2.2 11.2-10-2-2.2-10-11.9h0zm530.3-318.8h0l-2.4-6.1-1.2-3.1-5.7-12.8-2.4-5.1-1.2-2.8-13.4 6.7 1.2 2.6 2.4 5.1 5.3 12 1.4 3.1 2.2 5.5 4.1 11.6 14.2-4.9-4.5-11.8h0zM280.9 651.2c-2.2-10.6-3.7-22-4.9-37.3l-.2-2.9-14.9 1 .2 2.9c1.2 15.9 2.8 27.9 5.1 39.3l.6 2.9 14.7-2.9-.6-3zm605.6-110.8c-1.2-15.9-2.8-27.9-5.1-39.3l-.6-2.9-14.7 2.9.6 2.9c2.2 10.6 3.7 22 4.9 37.3l.2 2.9 14.9-1-.2-2.8h0zM768.6 321.8l-.6.8.4-1-5.3-3.9-10.6-7.3L744 323l10.2 6.9 4.7 3.5.2.2 2.6 2 3.7 2.8 13.2 11 10-11.2-13.8-11.4-6.2-5h0zm-8.7 11.2h0 0 0zM572.4 0C256.3 0 0 256.3 0 572.4s256.3 572.4 572.4 572.4 572.4-256.3 572.4-572.4S888.5 0 572.4 0zm284 881.2l-246.7 185v-61.5h-43.6c-56 0-112.8-11.4-164.3-32.8s-99.9-53.7-139.4-93.2c-39.7-39.7-71.9-87.9-93.2-139.6-21.4-51.5-32.6-108.3-32.6-164.5v-4.9h249v4.9a180.66 180.66 0 0 0 13.8 69.2c9 21.6 22.6 42.1 39.3 58.8s37 30.3 58.6 39.1c21.9 9.1 45.4 13.8 69.2 13.8h4.9v.2h39.1l-.8-62.7 248.8 186.7-2.1 1.5zm-97.3-306.1v-4.9a180.66 180.66 0 0 0-13.8-69.2c-9-21.6-22.6-42.1-39.3-58.8s-37-30.3-58.6-39.1c-21.9-9.1-45.4-13.8-69.2-13.8h-4.9v-.2h-39.1l.8 62.7-248.8-186.6L535 78.6v61.5h43.6c56 0 112.8 11.4 164.3 32.8s99.9 53.7 139.4 93.2c39.7 39.7 71.9 87.9 93.2 139.6 21.4 51.5 32.6 108.3 32.6 164.5v4.9h-249 0zm70.8-191h0c-.6-1-1.4-1.8-2-2.8L824 376l-2.4-2.8-10.4-12.4-2-2.2-11.2 10 2 2.2 9.8 11.6 2.4 2.9 3.7 4.9c.6 1 1.4 1.8 2.2 2.9l5.1 7.3 1.6 2.6 12.4-8.5-1.6-2.4c-1.6-2.5-3.7-5.3-5.7-8h0z" fill="#ffb121"/></svg>