<svg width="360" height="83" viewBox="0 0 360 83" fill="none" xmlns="http://www.w3.org/2000/svg">
<path d="M0.242188 41.6242V9.91052H2.47054V17.3434L1.97535 21.5554L2.47054 25.5196V41.6242H0.242188ZM11.8792 33.2003C9.8984 33.2003 7.91764 32.7047 6.43207 31.7137C4.6989 30.7226 3.46092 29.4838 2.47054 27.7495C1.48016 26.0151 0.984973 23.7853 0.984973 21.5554C0.984973 19.0778 1.48016 17.0957 2.47054 15.3613C3.46092 13.627 4.6989 12.1404 6.43207 11.3971C8.16523 10.406 9.8984 9.91052 11.8792 9.91052C14.1075 9.91052 16.0883 10.406 17.8214 11.3971C19.5546 12.3882 21.0402 13.8747 22.0306 15.6091C23.0209 17.3434 23.5161 19.3255 23.5161 21.8032C23.5161 24.033 23.0209 26.2629 22.0306 27.9972C21.0402 29.7316 19.5546 31.2182 17.8214 32.2092C16.0883 32.7047 14.1075 33.2003 11.8792 33.2003ZM11.8792 31.2182C13.6123 31.2182 15.3455 30.7226 16.5835 29.9793C18.069 29.2361 19.0594 27.9972 20.0498 26.5107C21.0402 25.0241 21.2878 23.2897 21.2878 21.3076C21.2878 19.3255 20.7926 17.5912 20.0498 16.1046C19.0594 14.8658 18.069 13.627 16.5835 12.8837C15.0979 12.1404 13.6123 11.6449 11.8792 11.6449C10.146 11.6449 8.41283 12.1404 7.17485 12.8837C5.68928 13.627 4.4513 14.8658 3.70852 16.3524C2.71814 17.8389 2.47054 19.5733 2.47054 21.5554C2.47054 23.5375 2.96573 25.2718 3.70852 26.7584C4.4513 28.245 5.68928 29.4838 6.92726 30.2271C8.16523 30.9704 9.8984 31.2182 11.8792 31.2182Z" fill="#1A6DE5"/>
<path d="M39.8611 33.2003C37.6328 33.2003 35.4044 32.7048 33.6712 31.7137C31.9381 30.7227 30.4525 29.2361 29.4621 27.5018C28.4718 25.7674 27.9766 23.7853 27.9766 21.3077C27.9766 19.0778 28.4718 16.8479 29.4621 15.1136C30.4525 13.3793 31.6905 11.8927 33.4237 10.9016C35.1568 9.91057 37.1376 9.41504 39.1183 9.41504C41.0991 9.41504 43.0799 9.91057 44.813 10.9016C46.5462 11.8927 47.7842 13.3793 48.7745 15.1136C49.7649 16.8479 50.2601 18.83 50.2601 21.3077V21.5554V21.8032H29.7097V20.3166H49.0221L48.0318 21.0599C48.0318 19.3256 47.7842 17.5912 46.7938 16.1046C45.8034 14.6181 45.0606 13.627 43.5751 12.636C42.3371 11.8927 40.6039 11.3971 38.8707 11.3971C37.1376 11.3971 35.652 11.8927 34.1664 12.636C32.9285 13.3793 31.6905 14.6181 30.9477 16.1046C30.2049 17.5912 29.9573 19.3256 29.9573 21.0599V21.5554C29.9573 23.5375 30.4525 25.0241 31.1953 26.5107C31.9381 27.9973 33.1761 29.2361 34.6616 29.9794C36.1472 30.7227 37.8804 31.2182 39.8611 31.2182C41.3467 31.2182 42.8323 30.9704 44.0702 30.4749C45.3082 29.9794 46.5462 29.2361 47.289 27.9973L48.527 29.4839C47.5366 30.7227 46.2986 31.7137 44.813 32.2093C43.3275 32.9525 41.5943 33.2003 39.8611 33.2003Z" fill="#1A6DE5"/>
<path d="M66.3569 33.2003C64.3762 33.2003 62.643 32.9525 61.1574 32.2092C59.6719 31.4659 58.6815 30.4749 57.6911 28.9883C56.9483 27.5017 56.4531 25.7674 56.4531 23.5375V9.91052H58.6815V23.2897C58.6815 26.0151 59.4243 27.9972 60.6622 29.2361C61.9002 30.7226 63.881 31.2182 66.3569 31.2182C68.0901 31.2182 69.5757 30.9704 70.8136 29.9793C72.0516 29.2361 73.042 28.245 73.7848 26.7584C74.5276 25.5196 74.7752 23.7853 74.7752 22.0509V9.91052H77.0035V33.2003H74.7752V26.7584L75.0228 27.5017C74.28 29.2361 73.2896 30.7226 71.5564 31.7137C70.566 32.7047 68.5853 33.2003 66.3569 33.2003Z" fill="#1A6DE5"/>
<path d="M86.6562 33.2002V9.91048H88.8846V16.3523L88.637 15.609C89.3798 13.6269 90.3702 12.1404 91.8557 11.1493C93.3413 10.1582 95.3221 9.66272 97.5504 9.66272V11.8926H97.3028H97.0552C94.5793 11.8926 92.3509 12.6359 91.113 14.3702C89.6274 16.1046 88.8846 18.3344 88.8846 21.0598V33.2002H86.6562Z" fill="#1A6DE5"/>
<path d="M117.356 33.2003C115.127 33.2003 113.147 32.7047 111.413 31.7137C109.68 30.7226 108.195 29.2361 107.204 27.5017C106.214 25.7674 105.719 23.7853 105.719 21.3076C105.719 19.0778 106.214 16.8479 107.204 15.1136C108.195 13.3792 109.68 11.8926 111.413 10.9016C113.147 9.91053 115.127 9.415 117.356 9.415C119.336 9.415 121.317 9.91053 122.803 10.9016C124.536 11.8926 125.774 13.1315 126.764 14.8658C127.755 16.6001 128.25 18.83 128.25 21.3076C128.25 23.7853 127.755 25.7674 126.764 27.5017C125.774 29.2361 124.536 30.7226 122.803 31.7137C121.317 32.7047 119.336 33.2003 117.356 33.2003ZM117.356 31.2182C119.089 31.2182 120.822 30.7226 122.06 29.9794C123.546 29.2361 124.536 27.9972 125.526 26.5107C126.269 25.0241 126.764 23.2897 126.764 21.3076C126.764 19.3255 126.269 17.5912 125.526 16.1046C124.784 14.618 123.546 13.3792 122.06 12.6359C120.574 11.8926 119.089 11.3971 117.356 11.3971C115.623 11.3971 113.889 11.8926 112.651 12.6359C111.166 13.3792 110.175 14.618 109.185 16.1046C108.442 17.5912 107.947 19.3255 107.947 21.3076C107.947 23.2897 108.442 25.0241 109.185 26.5107C109.928 27.9972 111.166 29.2361 112.651 29.9794C114.137 30.9704 115.623 31.2182 117.356 31.2182ZM126.764 33.2003V25.5196L127.26 21.5554L126.764 17.3434V0H128.993V33.2003H126.764Z" fill="#1A6DE5"/>
<path d="M147.814 33.2003C145.586 33.2003 143.358 32.7048 141.624 31.7137C139.891 30.7227 138.406 29.2361 137.415 27.5018C136.425 25.7674 135.93 23.7853 135.93 21.3077C135.93 19.0778 136.425 16.8479 137.415 15.1136C138.406 13.3793 139.644 11.8927 141.377 10.9016C143.11 9.91057 145.091 9.41504 147.071 9.41504C149.052 9.41504 151.033 9.91057 152.766 10.9016C154.499 11.8927 155.737 13.3793 156.728 15.1136C157.718 16.8479 158.213 18.83 158.213 21.3077V21.5554V21.8032H137.663V20.3166H156.975L155.985 21.0599C155.985 19.3256 155.737 17.5912 154.747 16.1046C153.757 14.6181 153.014 13.627 151.528 12.636C150.29 11.8927 148.557 11.3971 146.824 11.3971C145.091 11.3971 143.605 11.8927 142.12 12.636C140.882 13.3793 139.644 14.6181 138.901 16.1046C138.158 17.5912 137.663 19.0778 137.663 21.0599V21.5554C137.663 23.5375 138.158 25.0241 138.901 26.5107C139.644 27.9973 140.882 29.2361 142.367 29.9794C143.853 30.7227 145.586 31.2182 147.567 31.2182C149.052 31.2182 150.538 30.9704 151.776 30.4749C153.014 29.9794 154.252 29.2361 154.995 27.9973L156.232 29.4839C155.242 30.7227 154.004 31.7137 152.519 32.2093C151.281 32.9525 149.547 33.2003 147.814 33.2003Z" fill="#1A6DE5"/>
<path d="M176.531 33.2003V0H178.76V33.2003H176.531Z" fill="#1A6DE5"/>
<path d="M194.364 33.2002C192.63 33.2002 191.145 32.9525 189.907 32.4569C188.669 31.9614 187.678 31.2181 186.936 30.2271C186.193 29.236 185.945 27.9972 185.945 26.7584C185.945 25.5196 186.193 24.5285 186.688 23.5375C187.183 22.5464 188.174 21.8031 189.412 21.0598C190.65 20.5643 192.383 20.0688 194.611 20.0688H203.277V21.8031H194.859C192.383 21.8031 190.65 22.2986 189.907 23.0419C189.164 23.7852 188.421 25.024 188.421 26.5106C188.421 27.9972 188.916 29.236 190.154 29.9793C191.392 30.7226 192.878 31.2181 194.859 31.2181C196.839 31.2181 198.573 30.7226 199.811 29.9793C201.049 28.9883 202.287 27.7494 202.782 26.0151L203.525 27.5017C202.782 29.236 201.791 30.4748 200.306 31.4659C198.573 32.7047 196.592 33.2002 194.364 33.2002ZM202.782 33.2002V27.9972V27.2539V18.3344C202.782 16.1046 202.287 14.618 201.049 13.3792C199.811 12.1404 198.077 11.6448 195.849 11.6448C194.364 11.6448 192.63 11.8926 191.392 12.3881C189.907 12.8836 188.916 13.6269 187.926 14.618L186.688 13.1314C187.926 12.1404 189.164 11.3971 190.897 10.6538C192.383 9.91048 194.116 9.66272 195.849 9.66272C198.82 9.66272 201.049 10.406 202.534 11.8926C204.02 13.3792 204.763 15.609 204.763 18.3344V33.2002H202.782Z" fill="#1A6DE5"/>
<path d="M308.498 81.0186C307.755 80.2753 307.508 79.532 307.508 78.541C307.508 77.5499 307.755 76.8066 308.498 76.0633C309.241 75.32 309.984 75.0723 310.974 75.0723C311.965 75.0723 312.955 75.32 313.698 76.0633C314.44 76.8066 314.688 77.5499 314.688 78.541C314.688 79.532 314.44 80.2753 313.698 81.0186C312.955 81.7619 312.212 82.0096 310.974 82.0096C309.736 82.0096 309.241 81.7619 308.498 81.0186Z" fill="black"/>
<path d="M349.352 57.2333V82.0096H351.58V69.1259C351.58 65.905 352.323 63.4274 353.808 61.4453C355.294 59.7109 357.275 58.7199 359.998 58.7199V56.49C357.77 56.49 355.789 56.9855 354.056 58.2243C352.818 58.9676 352.075 60.2064 351.332 61.4453V57.481H349.352V57.2333Z" fill="#1A6DE5"/>
<path d="M328.061 52.2781C329.794 50.5437 332.27 49.8004 335.737 49.8004C338.955 49.8004 341.679 50.7915 343.66 52.2781L344.65 50.5437C342.422 48.5616 339.451 47.5706 335.489 47.5706C335.489 47.5706 334.994 47.5706 334.746 47.5706C331.032 47.5706 328.061 48.5616 326.081 50.5437C324.1 52.5258 323.109 55.2512 323.109 58.7199V82.0096H325.338V67.1439H341.431V65.1617H325.338V59.4632C325.585 56.2423 326.576 54.0124 328.061 52.2781Z" fill="#1A6DE5"/>
<path d="M8.41823 80.2753C5.69469 79.0365 3.71393 77.3021 2.22836 74.8245C0.742785 72.5946 0 69.8692 0 66.6483C0 62.9318 0.99038 59.4632 2.72355 56.49C4.45671 53.5168 6.93266 51.0392 10.1514 49.3049C13.3701 47.5705 17.0841 46.5795 21.0456 46.5795C24.7595 46.5795 27.9782 47.3228 30.4542 48.8093C33.1777 50.2959 35.1585 52.5258 36.3965 55.2512L28.2258 59.4632C26.7403 56.2422 24.2643 54.7557 20.5504 54.7557C18.5696 54.7557 16.8365 55.2512 15.3509 56.2422C13.8653 57.2333 12.6273 58.4721 11.637 60.2064C10.6466 61.9408 10.399 63.9229 10.399 66.1528C10.399 68.3826 11.1418 70.3647 12.6273 71.8513C14.1129 73.3379 16.0937 73.8334 18.5696 73.8334C22.2836 73.8334 25.0071 72.3468 26.9879 69.1259L34.4157 73.8334C32.6826 76.5588 30.4542 78.5409 27.4831 80.0275C24.5119 81.5141 21.2932 82.2574 17.8268 82.2574C14.3605 82.0096 11.1418 81.5141 8.41823 80.2753Z" fill="black"/>
<path d="M114.886 49.5526C117.114 51.5347 118.352 54.5079 118.352 58.2243C118.352 59.7109 118.104 60.9497 117.857 62.4363L114.143 81.5141H104.239L107.953 62.9318C108.201 62.1886 108.201 61.4453 108.201 60.4542C108.201 58.7199 107.705 57.2333 106.715 56.2422C105.725 55.2512 104.239 54.7557 102.258 54.7557C99.7824 54.7557 97.554 55.4989 95.8208 56.9855C94.0877 58.4721 93.0973 60.702 92.3545 63.6751L88.8882 81.2663H78.9844L85.6694 47.075H95.0781L94.3353 50.7914C97.3064 48.066 101.268 46.5795 105.725 46.5795C109.686 46.5795 112.657 47.5705 114.886 49.5526Z" fill="black"/>
<path d="M160.936 70.8603C160.936 71.8513 161.183 72.8424 161.926 73.3379C162.421 73.8334 163.411 74.0812 164.402 74.0812C165.64 74.0812 166.63 73.8335 167.373 73.5857L166.135 81.2663C164.402 81.7619 162.669 82.0096 160.688 82.0096C158.212 82.0096 156.231 81.5141 154.746 80.5231C153.26 79.532 152.022 78.0454 151.527 76.3111C150.041 78.0454 148.308 79.532 146.327 80.5231C144.347 81.5141 141.871 82.0096 139.395 82.0096C136.671 82.0096 134.195 81.5141 131.967 80.0275C129.739 78.7887 128.005 77.0544 126.52 74.5767C125.034 72.0991 124.539 69.6215 124.539 66.4005C124.539 62.6841 125.282 59.2154 127.015 55.9945C128.748 53.0213 130.977 50.5437 133.948 48.8094C136.919 47.075 140.138 46.3317 143.604 46.3317C146.08 46.3317 148.308 46.8273 150.289 47.5705C152.27 48.3138 153.755 49.8004 154.746 51.5348L158.212 33.6958H168.116L160.936 69.3737C160.936 70.117 160.936 70.6125 160.936 70.8603ZM147.565 72.3469C149.051 71.3558 150.289 70.117 151.032 68.3827C151.775 66.6483 152.27 64.6662 152.27 62.4363C152.27 60.2065 151.527 58.2244 150.289 56.7378C148.803 55.2512 147.07 54.7557 144.594 54.7557C142.613 54.7557 140.88 55.2512 139.395 56.2423C137.909 57.2333 136.671 58.4721 135.928 60.2065C135.186 61.9408 134.69 63.9229 134.69 66.1528C134.69 68.3827 135.433 70.3648 136.671 71.8513C138.157 73.3379 139.89 73.8334 142.366 73.8334C144.347 73.8334 146.08 73.3379 147.565 72.3469Z" fill="black"/>
<path d="M214.416 73.5857L213.425 81.2664C211.692 81.7619 209.959 82.0096 207.978 82.0096C205.502 82.0096 203.274 81.5141 201.788 80.5231C200.055 79.532 199.065 78.0454 198.57 76.3111C197.084 78.2932 195.103 79.7798 192.875 80.5231C190.647 81.7619 188.418 82.0096 185.942 82.0096C182.228 82.0096 179.257 81.0186 177.029 79.0365C174.8 77.0544 173.562 74.0812 173.562 70.3648C173.562 68.8782 173.81 67.6394 174.058 66.1528L177.772 47.075H187.675L183.961 65.4095C183.714 66.1528 183.714 67.1439 183.714 67.8871C183.714 71.3558 185.695 73.3379 189.409 73.3379C191.885 73.3379 194.113 72.5946 195.598 71.1081C197.332 69.6215 198.322 67.3916 199.065 64.4185L202.531 46.8273H212.435L208.226 69.6215C208.226 70.117 207.978 70.6125 207.978 70.8603C207.978 73.0902 209.216 74.0812 211.445 74.0812C212.683 74.0812 213.673 74.0812 214.416 73.5857Z" fill="black"/>
<path d="M225.315 47.075H235.219L228.287 81.5141H218.383L225.315 47.075ZM227.791 40.8809C226.801 39.8899 226.058 38.651 226.058 37.1645C226.058 35.4301 226.553 33.9435 227.791 32.9525C229.029 31.9614 230.515 31.2181 232.496 31.2181C234.229 31.2181 235.714 31.7137 236.705 32.7047C237.695 33.6958 238.438 34.9346 238.438 36.1734C238.438 37.9077 237.943 39.3943 236.457 40.6331C235.219 41.872 233.734 42.3675 231.753 42.3675C230.267 42.3675 228.782 41.872 227.791 40.8809Z" fill="black"/>
<path d="M249.821 69.3737C249.821 69.6214 249.573 70.117 249.573 70.8603C249.573 73.0901 250.811 74.0812 253.04 74.0812C254.525 74.0812 255.763 73.5857 257.249 72.8424L258.734 80.0275C256.506 81.5141 253.535 82.0096 250.068 82.0096C246.85 82.0096 244.126 81.2663 242.393 79.532C240.412 77.7976 239.422 75.5678 239.422 72.5946C239.422 71.8513 239.422 70.6125 239.669 69.6214L245.612 39.6421H255.516L253.782 48.066H262.201L260.715 55.7467H252.297L249.821 69.3737Z" fill="black"/>
<path d="M295.872 50.5437C298.844 53.2691 300.329 56.9855 300.329 62.1886C300.329 62.9319 300.329 63.6751 300.329 64.1707L273.836 69.1259C274.827 72.5946 277.55 74.329 282.502 74.329C284.235 74.329 285.969 74.0812 287.454 73.5857C288.94 73.0901 290.425 72.3469 291.663 71.108L295.872 77.7976C293.892 79.2842 291.663 80.523 289.187 81.2663C286.711 82.0096 283.988 82.5051 281.264 82.5051C277.798 82.5051 274.579 81.7619 271.856 80.523C269.132 79.2842 267.151 77.5499 265.666 75.0722C264.18 72.8424 263.438 70.117 263.438 66.8961C263.438 63.1796 264.18 59.7109 265.913 56.49C267.647 53.5168 270.123 51.0392 273.094 49.3049C276.065 47.5705 279.779 46.8272 283.74 46.8272C288.94 46.5795 292.901 48.0661 295.872 50.5437ZM276.808 56.49C275.074 58.2243 274.084 60.2065 273.589 62.9318L290.921 59.7109C290.673 57.9766 289.93 56.49 288.445 55.499C287.207 54.5079 285.473 54.0124 283.245 54.0124C280.769 54.0124 278.541 55.0034 276.808 56.49Z" fill="black"/>
<path d="M75.0205 51.0392C72.5445 49.3048 69.5734 48.8093 67.0975 49.5526L67.3451 44.8451C67.3451 43.1108 65.6119 41.1287 63.8787 41.6242C63.3835 41.6242 62.8883 42.1197 62.8883 42.6152L62.6407 53.7646C62.6407 53.7646 62.6407 53.7646 62.6407 54.0123C62.1456 56.2422 62.8883 58.9676 64.8691 60.9497C68.0878 63.9229 73.5349 64.4184 76.5061 61.693C79.7248 58.4721 78.982 53.7646 75.0205 51.0392Z" fill="white" stroke="#1D1D1B" stroke-miterlimit="10"/>
<path d="M43.3274 54.7556C45.0605 53.269 47.2889 52.5257 49.0221 53.0213L49.2697 48.8093C49.2697 47.3227 50.5076 46.3317 51.9932 46.3317C52.2408 46.3317 52.736 46.8272 52.4884 47.3227L51.9932 56.2422C52.2408 58.2243 51.498 60.2064 49.5172 62.1885C46.7937 64.6661 43.3274 64.6661 41.3466 62.684C39.6134 60.7019 40.6038 56.9855 43.3274 54.7556Z" fill="white" stroke="black" stroke-miterlimit="10"/>
<path d="M45.801 80.2753C43.0775 79.0365 41.0967 77.3021 39.6112 74.8245C38.1256 72.5946 37.3828 69.8692 37.3828 66.6483C37.3828 62.9318 38.3732 59.4632 40.1064 56.49C41.8395 53.5168 44.3155 51.0392 47.5342 49.3049C50.7529 47.5705 54.2193 46.5795 58.1808 46.5795C61.6471 46.5795 64.6183 47.3228 67.3418 48.5616C70.0654 49.8004 72.0461 51.5347 73.2841 54.0124C74.7697 56.2422 75.5125 58.9676 75.5125 62.1886C75.5125 65.905 74.5221 69.3737 72.7889 72.3468C71.0557 75.32 68.5798 77.7976 65.3611 79.532C62.1423 81.2663 58.676 82.2574 54.7145 82.2574C51.4957 82.0096 48.5246 81.5141 45.801 80.2753ZM60.9043 72.3468C62.3899 71.3558 63.6279 70.117 64.3707 68.3826C65.1135 66.6483 65.6087 64.6662 65.6087 62.4363C65.6087 60.2064 64.8659 58.2243 63.6279 56.7378C62.1423 55.2512 60.4092 54.7557 57.9332 54.7557C55.9524 54.7557 54.2193 55.2512 52.7337 56.2422C51.2481 57.2333 50.0102 58.4721 49.2674 60.2064C48.5246 61.9408 48.0294 63.9229 48.0294 66.1528C48.0294 68.3826 48.7722 70.3647 50.0102 71.8513C51.4957 73.3379 53.2289 73.8334 55.7048 73.8334C57.6856 73.8334 59.4188 73.3379 60.9043 72.3468Z" fill="black"/>
<path d="M43.8299 49.3049L42.5919 51.287C42.3444 51.5348 42.3444 51.7825 42.5919 51.7825L46.8011 56.7378C47.0487 56.9856 47.0487 56.7378 47.2963 56.7378L48.5342 54.7557C48.7818 54.5079 48.7818 54.2602 48.5342 54.0124L44.0775 49.0571C44.0775 49.0571 44.0775 49.0571 43.8299 49.3049Z" fill="white" stroke="#1D1D1B" stroke-width="0.25" stroke-miterlimit="10"/>
<path d="M41.0998 52.0302L40.1094 54.0123C40.1094 54.2601 40.1094 54.5079 40.1094 54.5079L45.3089 59.9587C45.5565 59.9587 45.5565 59.9587 45.8041 59.9587L47.042 57.9766C47.2896 57.7288 47.2896 57.481 47.042 57.2333L41.8425 51.7825C41.3473 51.7825 41.3473 51.7825 41.0998 52.0302Z" fill="white" stroke="#1D1D1B" stroke-width="0.25" stroke-miterlimit="10"/>
<path d="M39.3654 55.7468L38.375 57.7289C38.375 57.9767 38.375 58.2244 38.375 58.2244L42.8317 61.9409C43.0793 61.9409 43.0793 61.9409 43.3269 61.6931L44.3173 59.4632C44.3173 59.2155 44.3173 58.9677 44.3173 58.7199L39.8606 55.499C39.613 55.499 39.613 55.499 39.3654 55.7468Z" fill="white" stroke="#1D1D1B" stroke-width="0.25" stroke-miterlimit="10"/>
<path d="M38.6178 59.9587L37.875 61.9408C37.875 62.1885 37.875 62.4363 37.875 62.4363L40.8461 64.6662C41.0937 64.6662 41.0937 64.6662 41.3413 64.4184L42.3317 62.1885C42.3317 61.9408 42.3317 61.693 42.0841 61.693L38.8654 59.4631C38.8654 59.7109 38.8654 59.7109 38.6178 59.9587Z" fill="white" stroke="#1D1D1B" stroke-width="0.25" stroke-miterlimit="10"/>
<path d="M43.0866 48.5615L42.3438 49.0571C41.601 49.5526 41.8486 50.5436 42.3438 50.7914L46.8005 55.9944C47.2957 56.7377 48.2861 56.49 48.5337 55.9944L49.2765 55.4989C50.0192 55.0034 49.7716 54.0123 49.2765 53.7646L44.5721 48.8093C44.3246 48.066 43.3342 48.066 43.0866 48.5615Z" fill="white" stroke="black" stroke-miterlimit="10"/>
<path d="M39.1166 51.0392L38.6214 51.7825C38.1262 52.5258 38.1262 53.2691 38.6214 53.5168L45.0589 59.4631C45.8017 59.9587 46.5444 59.9587 46.792 59.4631L47.2872 58.7198C47.7824 57.9766 47.7824 57.2333 47.2872 56.9855L40.8497 51.0392C40.3546 50.5437 39.6118 50.2959 39.1166 51.0392Z" fill="white" stroke="black" stroke-miterlimit="10"/>
<path d="M36.89 55.2511L36.3948 55.9944C35.8996 56.7377 35.8996 57.481 36.3948 57.7287L42.3371 61.9407C43.0799 62.4362 43.8227 62.4362 44.0703 61.9407L44.5655 61.1974C45.0607 60.4541 45.0607 59.7108 44.5655 59.4631L38.8708 55.2511C38.3756 54.5078 37.1376 54.7556 36.89 55.2511Z" fill="white" stroke="black" stroke-miterlimit="10"/>
<path d="M36.4013 59.9587L35.9061 60.7019C35.4109 61.4452 35.6585 62.4363 36.4013 62.684L39.8676 64.9139C40.6104 65.4094 41.6008 65.1617 41.8483 64.4184L42.3435 63.6751C42.8387 62.9318 42.5911 61.9408 41.8483 61.693L38.6296 59.4631C37.6392 58.9676 36.8964 59.2154 36.4013 59.9587Z" fill="white" stroke="black" stroke-miterlimit="10"/>
<path d="M72.7948 47.8183L74.528 49.5526C74.7756 49.8004 74.528 50.0481 74.2804 50.2959L65.8622 56.49C65.6146 56.7377 65.367 56.7377 65.1194 56.49L63.6338 54.7556C63.3862 54.5079 63.6338 54.2601 63.8814 54.0124L72.052 47.8183C72.2996 47.5705 72.7948 47.5705 72.7948 47.8183Z" fill="white" stroke="#1D1D1B" stroke-miterlimit="10"/>
<path d="M76.7542 50.2959L78.4873 52.5258C78.7349 52.7736 78.4873 53.0213 78.2397 53.2691L67.0979 59.9587C66.8504 60.2065 66.6028 59.9587 66.3552 59.9587L65.1172 57.9766C65.1172 57.7288 65.1172 57.4811 65.3648 57.2333L76.259 50.5437C76.259 50.0482 76.5066 50.0482 76.7542 50.2959Z" fill="white" stroke="#1D1D1B" stroke-miterlimit="10"/>
<path d="M78.2355 54.7557L79.4735 57.2333C79.7211 57.4811 79.4735 57.7289 78.9783 57.9766L68.8269 62.1886C68.5793 62.4364 68.3317 62.1886 68.0841 61.9408L67.0938 59.711C67.0938 59.4632 67.0938 59.2154 67.3413 58.9677L77.2451 54.5079C77.7403 54.5079 78.2355 54.5079 78.2355 54.7557Z" fill="white" stroke="#1D1D1B" stroke-miterlimit="10"/>
<path d="M77.2488 59.9587L78.2391 62.6841C78.2391 62.9318 78.2391 63.1796 77.744 63.4274L70.5637 64.4184C70.3161 64.4184 69.8209 64.4184 69.8209 64.1706L69.0781 62.6841C69.0781 62.4363 69.0781 62.1885 69.5733 61.9408L76.506 59.7109C76.7536 59.4631 77.2488 59.7109 77.2488 59.9587Z" fill="white" stroke="#1D1D1B" stroke-miterlimit="10"/>
<path d="M53.7284 68.6304C52.9856 68.3826 52.4904 67.8871 51.9952 67.1438C51.5 66.4005 51.5 65.905 51.5 64.9139C51.5 63.9229 51.7476 62.9318 52.2428 62.1885C52.738 61.4452 53.4808 60.7019 54.2235 60.2064C54.9663 59.7109 55.9567 59.4631 57.1947 59.4631C58.1851 59.4631 58.9279 59.7109 59.6706 59.9587C60.4134 60.2064 60.9086 60.7019 61.4038 61.4452C61.899 62.1885 61.899 62.6841 61.899 63.6751C61.899 64.6662 61.6514 65.6572 61.1562 66.4005C60.661 67.1438 59.9182 67.8871 59.1754 68.3826C58.4327 68.8781 57.4423 69.1259 56.2043 69.1259C55.4615 69.1259 54.4711 69.1259 53.7284 68.6304ZM57.9375 66.6483C58.4327 66.4005 58.6803 66.1527 58.9279 65.6572C59.1754 65.1617 59.1754 64.6662 59.1754 64.1706C59.1754 63.4273 58.9279 62.9318 58.6803 62.6841C58.1851 61.9408 57.6899 61.9408 56.9471 61.9408C56.4519 61.9408 55.9567 62.1885 55.4615 62.4363C54.9663 62.6841 54.7187 62.9318 54.4711 63.4273C54.2235 63.9229 54.2235 64.4184 54.2235 64.9139C54.2235 65.6572 54.4711 66.1527 54.7187 66.4005C55.2139 66.6483 55.7091 66.896 56.2043 66.896C56.9471 66.896 57.4423 66.896 57.9375 66.6483Z" fill="black"/>
</svg>
