<svg xmlns="http://www.w3.org/2000/svg" width="45" height="40" fill="none"><g clip-path="url(#A)"><path d="M45 18.667c0-2-1-3.333-2.667-4.333V2.667C42.667 1.667 42 0 40 0c-.667 0-1 .333-1.667.667L31.667 6C28.333 8.667 24.333 10 20 10H5c-2.667 0-5 2.333-5 5v7.333c0 2.667 2.333 5 5 5h2.667C7.667 28 7.333 29 7.333 30c0 3 .667 6 2 8.667.667 1 1.333 1.333 2.333 1.333h5.667c2 0 3.333-2.333 2-4-1-1.667-2-3.667-2-6 0-1 0-1.667.333-2.667H20c4.333 0 8.333 1.333 11.667 4l6.667 5.333a2.55 2.55 0 0 0 1.667.667c2 0 2.667-1.667 2.667-2.667V23C44 22.333 45 20.667 45 18.667zm-7.667 11l-2.667-2c-4-3.333-9.333-5-14.667-5V15c5.333 0 10.667-2 15-5.333l2.667-2v22h-.333z" fill="#000"/></g><defs><clipPath id="A"><path fill="#fff" d="M0 0h45v40H0z"/></clipPath></defs></svg>