<svg xmlns="http://www.w3.org/2000/svg" viewBox="0 0 1145 1145" fill="#ffb121"><circle cx="412.8" cy="388.3" r="120.4"/><path d="M734.1 372.1c-54.8 0-99.4 44.5-99.4 99.4s44.5 99.4 99.4 99.4 99.4-44.5 99.4-99.4-44.6-99.4-99.4-99.4zm52.7 146.6c-10.8 13.8-29.4 22.9-50.2 22.9-21.1 0-39.7-9.2-50.5-22.9-2.4-3-2.2-7.6.5-10.3l.5-.5c3.2-3.2 8.9-2.7 11.6.8 7.8 10 21.6 16.7 37.5 16.7s29.7-6.7 37.5-16.5c3-3.8 8.4-4.3 11.6-.8l.5.5c3.1 2.5 3.4 7.1 1 10.1h0 0zM572.4 0C256.8 0 0 256.8 0 572.4s256.8 572.4 572.4 572.4 572.4-256.8 572.4-572.4S887.7 0 572.4 0zm308.3 837.5c0 23.8-5.9 46.2-16.5 65.6-5.1 9.4-18.1 11.6-25.6 3.8h0c-5.1-5.1-6.2-13-2.7-19.2 8.1-14.8 12.7-32.1 12.7-50.2 0-6.2-.5-12.4-1.6-18.4h-.3c-8.6.8-17-1.6-22.9-7.8-10.5-10.5-10.3-28.3-.3-42.1v-.3c-19.4-22.9-48.6-37.5-81-37.5-34.6 0-65.3 16.7-84.8 42.4v.3c10.3 13.8 10.8 31.9 0 42.7-5.4 5.4-12.7 7.8-20.2 7.8h-.3c-.5 4.3-.8 8.6-.8 13 0 17.3 4.3 33.7 11.6 48.3 3.2 6.2 2.2 14-3 18.9-7.8 7.8-20.8 5.7-25.9-4-9.7-18.9-15.4-40.5-15.4-63.2 0-9.7 1.1-19.4 3-28.6-11.1-14-11.6-32.7-.8-43.5 5.9-5.9 14.6-8.6 23.2-7.8 25.1-35.4 66.4-58.3 112.9-58.3 44.3 0 83.4 20.8 108.8 53.2 8.9-1.1 17.5 1.3 23.8 7.6 10.3 10.3 10.3 27.8.8 41.3 3.7 11.5 5.3 23.6 5.3 36h0 0zm77 35.4c0 9.7-7.9 17.5-17.5 17.5-9.7 0-17.5-7.9-17.5-17.5v-81.5c0-99.9-82.1-180.9-182.2-179.5-98.5 1.3-176.8 83.7-176.8 182.5V873c0 9.7-7.9 17.5-17.5 17.5-9.7 0-17.5-7.9-17.5-17.5v-81.5c0-55.3 21.1-105.8 55.6-143.9-30.5-56.7-90.7-95.6-159.8-95.6H404c-99.9 0-181.2 80.5-181.2 179.8v146.9c0 9.7-7.9 17.5-17.5 17.5s-17.5-7.9-17.5-17.5v-147c0-96.9 64.8-179 153.6-205.5-49.4-25.9-83.4-78-83.4-137.7 0-85.9 69.7-155.5 155.5-155.5S569 302.7 569 388.5c0 59.4-33.5 111.2-82.9 137.4 52.9 15.7 97.2 50.8 124.7 97.2 17.8-14 37.8-25.4 59.7-33.2-41.8-22.7-70.5-67.2-70.5-118.3 0-74.2 60.2-134.5 134.5-134.5 74.2 0 134.5 60.2 134.5 134.5 0 48.3-25.6 90.7-64 114.5 88.6 27 153.1 110.7 153.1 208.4l-.4 78.4h0 0z"/></svg>