<svg xmlns="http://www.w3.org/2000/svg" width="360" height="860" fill="none"><style><![CDATA[.B{color-interpolation-filters:sRGB}.C{flood-opacity:0}.D{fill:#ebecea}.E{fill:#f27e02}]]></style><g clip-path="url(#Ae)"><g filter="url(#A)" class="D"><path d="M49.556 377.353l-73.493 73.489 73.493 73.489 73.493-73.489-73.493-73.489z"/></g><g filter="url(#B)" class="E"><path d="M208.411 507.957l-57.278-57.274 57.278-57.275 57.278 57.275-57.278 57.274zm-54.556-57.274l54.556 54.552 54.594-54.552-54.556-54.553-54.594 54.553z"/><path d="M98.609 530.269l-74.53-74.526 74.569-74.564 74.568 74.564-74.606 74.526zM26.8 455.743l71.847 71.842 71.846-71.842L98.647 383.9 26.8 455.743z"/></g><g filter="url(#C)" class="E"><path d="M110.838 415.605L2.109 306.921l108.729-108.722 108.69 108.684-108.69 108.722zM4.831 306.921l106.007 106 106.006-106-106.006-106-106.007 106z"/><path d="M8.361 361.934l-81.853-81.848 81.853-81.887 81.853 81.848-81.853 81.887zm-79.169-81.848l79.169 79.126 79.169-79.165-79.169-79.126-79.169 79.165z"/></g><g filter="url(#D)"><path d="M186.437 538.703L93.734 631.4 1.031 538.703l92.703-92.736 92.703 92.736z" fill="url(#AA)"/></g><g filter="url(#E)" class="D"><path d="M191.319 480.125l-39.038 39.035 39.038 39.035 39.037-39.035-39.037-39.035z"/></g><g filter="url(#F)" class="D"><path d="M246.79 541.796l-34.157 34.155 34.157 34.156 34.158-34.156-34.158-34.155z"/></g><g filter="url(#G)" class="D"><path d="M98.601 1.954L25.406 75.144l73.195 73.191 73.195-73.191L98.601 1.954z"/></g><g filter="url(#H)"><path d="M284.048 182.481l-119.156 119.15-119.119-119.15L164.892 63.332l119.156 119.149z" fill="url(#AB)"/></g><g filter="url(#I)"><path d="M191.352 299.599l-82.735 82.73-82.773-82.73 82.773-82.73 82.735 82.73z" fill="url(#AC)"/></g><g filter="url(#J)"><path d="M308.433 80.008l-51.22 51.256-51.221-51.256 51.221-51.217 51.22 51.218z" fill="url(#AD)"/></g><g filter="url(#K)" class="E"><path d="M271.856 230.21l-42.825-42.86 42.825-42.822 42.824 42.822-42.824 42.86zm-40.141-42.86l40.141 40.138 40.14-40.138-40.14-40.1-40.141 40.1z"/></g><g filter="url(#L)"><path d="M267.295 270.31l-6.25 6.287-6.287-6.287 6.287-6.249 6.25 6.249z" fill="url(#AE)"/></g><g filter="url(#M)"><path d="M195.028 421.317l-50.147 50.144-50.186-50.144 50.186-50.182 50.147 50.182z" fill="url(#AF)"/></g><g filter="url(#N)"><path d="M285.007 632.32l-51.527 51.524-51.527-51.524 51.527-51.524 51.527 51.524z" fill="url(#AG)"/></g><g filter="url(#O)"><path d="M59.927 417.023l-14.99 14.99-14.952-14.99 14.952-14.951 14.99 14.951z" fill="url(#AH)"/></g><g filter="url(#P)"><path d="M10.772 397.165l-9.738 9.776-9.776-9.776 9.776-9.738 9.738 9.738z" fill="url(#AI)"/></g><g filter="url(#Q)"><path d="M211.671 40.982l-10.16 10.159-10.159-10.159 10.159-10.159 10.16 10.159z" fill="url(#AJ)"/></g><g filter="url(#R)"><path d="M151.248 28.791l-25.112 25.072-25.074-25.072 25.074-25.072 25.112 25.072z" fill="url(#AK)"/></g><g filter="url(#S)"><path d="M54.707 177.612L4.522 227.756l-50.147-50.144L4.522 127.43l50.185 50.182z" fill="url(#AL)"/></g><g filter="url(#T)"><path d="M9.621 110.485l-8.588 8.588-8.588-8.588 8.588-8.587 8.588 8.587z" fill="url(#AM)"/></g><g filter="url(#U)"><path d="M212.169 549.782l-25.725 25.724-25.725-25.724 25.725-25.724 25.725 25.724z" fill="url(#AN)"/></g><g filter="url(#V)"><path d="M299.042 504.2l-12.537 12.536L273.93 504.2l12.575-12.536 12.537 12.536z" fill="url(#AO)"/></g><g filter="url(#W)"><path d="M254.757 528.927l-9.738 9.776-9.777-9.776 9.777-9.776 9.738 9.776z" fill="url(#AP)"/></g><g filter="url(#X)"><path d="M181.569 597.242l-9.738 9.738-9.776-9.738 9.776-9.775 9.738 9.775z" fill="url(#AQ)"/></g><g filter="url(#Y)"><path d="M249.894 504.545l-4.869 4.869-4.908-4.869 4.908-4.907 4.869 4.907z" fill="url(#AR)"/></g><g filter="url(#Z)" class="D"><path d="M197.287 274.111l-63.435 63.432 63.435 63.432 63.436-63.432-63.436-63.432z"/></g><g filter="url(#a)" class="D"><path d="M257.215 189.821l-36.598 36.596 36.598 36.595 36.597-36.595-36.597-36.596z"/></g><g filter="url(#b)"><path d="M250.584 310.026l-25.074 25.111-25.112-25.111 25.112-25.072 25.074 25.072z" fill="url(#AS)"/></g><g filter="url(#c)" class="D"><path d="M103.517 172.744l-51.259-51.256-51.22 51.256 40.256 40.253-37.649 37.608 2.645 2.645-26.837 26.836 37.649 37.646 26.837-26.836 34.965 34.963 48.498-48.495 18.709 18.708 31.706-31.704-31.706-31.704-4.984 4.983-51.259-51.294 13.648-13.609zm36.23 66.207l-25.38 25.378 11.655 11.655-47.157 47.153-33.623-33.621 9.431-9.43-37.649-37.647-9.393 9.431-1.265-1.265 36.268-36.266 9.623 9.622 36.23-36.228 51.259 51.218z"/></g><g filter="url(#d)" class="D"><path d="M244.446 212.575l-57.469-57.466 57.469-57.466 57.47 57.466-57.47 57.466zm-54.747-57.466l54.747 54.744 54.748-54.744-54.748-54.783-54.747 54.783z"/></g><g filter="url(#e)" class="D"><path d="M154.735 644.933l-57.469-57.466L154.735 530l57.47 57.467-57.47 57.466zm-54.747-57.466l54.747 54.744 54.748-54.744-54.748-54.745-54.747 54.745z"/></g><g filter="url(#f)" class="E"><path d="M144.998 156.988L70.43 82.462l74.568-74.564 74.569 74.564-74.569 74.526zM73.152 82.462l71.846 71.842 71.847-71.842-71.847-71.842-71.846 71.842z"/></g><g filter="url(#g)" class="E"><path d="M262.086 420.512l-30.633-30.631 30.633-30.631 30.632 30.631-30.632 30.631zm-27.911-30.631l27.911 27.909 27.91-27.909-27.91-27.909-27.911 27.909z"/></g><g filter="url(#h)" class="D"><path d="M108.383 616.756L53.444 561.82-4.562 619.784l95.157 95.151 95.157-95.151-40.218-40.176-37.15 37.148z"/></g><g filter="url(#i)" class="E"><path d="M318.208 603.491l-23.31-23.308 23.31-23.309 23.31 23.309-23.31 23.308zm-20.588-23.347l20.588 20.587 20.588-20.587-20.588-20.586-20.588 20.586z"/></g><g filter="url(#j)"><path d="M337.728 563.085l-2.453 2.453-2.416-2.453 2.416-2.454 2.453 2.454z" fill="url(#AT)"/></g><g filter="url(#k)" class="D"><path d="M192.576 705.693l-39.037 39.035 39.037 39.035 39.038-39.035-39.038-39.035z"/></g><g filter="url(#l)" class="D"><path d="M248.009 653.783l-34.157 34.156 34.157 34.156 34.158-34.156-34.158-34.156z"/></g><g filter="url(#m)"><path d="M213.435 714.13l-25.725-25.724-25.726 25.724 25.726 25.724 25.725-25.724z" fill="url(#AU)"/></g><g filter="url(#n)"><path d="M300.269 759.712l-12.537-12.536-12.537 12.536 12.537 12.536 12.537-12.536z" fill="url(#AV)"/></g><g filter="url(#o)"><path d="M256.022 734.985l-9.776-9.776-9.738 9.776 9.738 9.737 9.776-9.737z" fill="url(#AW)"/></g><g filter="url(#p)"><path d="M182.834 666.67l-9.776-9.776-9.777 9.776 9.777 9.737 9.776-9.737z" fill="url(#AX)"/></g><g filter="url(#q)"><path d="M251.121 759.367l-4.869-4.869-4.869 4.869 4.869 4.869 4.869-4.869z" fill="url(#AY)"/></g><g filter="url(#r)" class="D"><path d="M213.471 676.407l-57.47 57.466-57.47-57.466 57.47-57.466 57.47 57.466zm-57.508 54.783l54.747-54.745-54.747-54.744-54.748 54.706 54.748 54.783z"/></g><g filter="url(#s)" class="E"><path d="M323.581 714.935l-23.31 23.309-23.31-23.309 23.31-23.308 23.31 23.308zm-23.31 20.625l20.588-20.587-20.588-20.586-20.588 20.586 20.588 20.587z"/></g><g filter="url(#t)"><path d="M319.783 732.033l-2.415-2.453-2.454 2.453 2.454 2.415 2.415-2.415z" fill="url(#AZ)"/></g><g filter="url(#u)" class="D"><path d="M242.475 773.991l-39.037 39.035 39.037 39.035 39.037-39.035-39.037-39.035z"/></g><g filter="url(#v)"><path d="M237.585 817.907l-25.726 25.723 25.726 25.724 25.725-25.724-25.725-25.723z" fill="url(#Aa)"/></g><g filter="url(#w)"><path d="M337.607 785.512l-12.537 12.536 12.537 12.536 12.537-12.536-12.537-12.536z" fill="url(#Ab)"/></g><g filter="url(#x)"><path d="M300.347 816.488l-9.738 9.738 9.738 9.775 9.777-9.775-9.777-9.738z" fill="url(#Ac)"/></g><g filter="url(#y)"><path d="M303.299 793.18l-4.869 4.868 4.869 4.869 4.869-4.869-4.869-4.868z" fill="url(#Ad)"/></g><g filter="url(#z)" class="D"><path d="M205.876 938.82l-57.47-57.467 57.47-57.466 57.47 57.466-57.47 57.467zm-54.786-57.467l54.748 54.706 54.747-54.744-54.747-54.744-54.748 54.782z"/></g></g><defs><filter id="A" x="-23.937" y="377.353" width="154.984" height="154.978" filterUnits="userSpaceOnUse" class="B"><feFlood result="A" class="C"/><feColorMatrix in="SourceAlpha" values="0 0 0 0 0 0 0 0 0 0 0 0 0 0 0 0 0 0 127 0" result="B"/><feOffset dx="4" dy="4"/><feGaussianBlur stdDeviation="2"/><feComposite in2="B" operator="out"/><feColorMatrix values="0 0 0 0 0 0 0 0 0 0 0 0 0 0 0 0 0 0 0.25 0"/><feBlend in2="A"/><feBlend in="SourceGraphic"/></filter><filter id="B" x="24.078" y="381.179" width="249.609" height="157.09" filterUnits="userSpaceOnUse" class="B"><feFlood result="A" class="C"/><feColorMatrix in="SourceAlpha" values="0 0 0 0 0 0 0 0 0 0 0 0 0 0 0 0 0 0 127 0" result="B"/><feOffset dx="4" dy="4"/><feGaussianBlur stdDeviation="2"/><feComposite in2="B" operator="out"/><feColorMatrix values="0 0 0 0 0 0 0 0 0 0 0 0 0 0 0 0 0 0 0.25 0"/><feBlend in2="A"/><feBlend in="SourceGraphic"/></filter><filter id="C" x="-73.492" y="198.199" width="301.023" height="225.406" filterUnits="userSpaceOnUse" class="B"><feFlood result="A" class="C"/><feColorMatrix in="SourceAlpha" values="0 0 0 0 0 0 0 0 0 0 0 0 0 0 0 0 0 0 127 0" result="B"/><feOffset dx="4" dy="4"/><feGaussianBlur stdDeviation="2"/><feComposite in2="B" operator="out"/><feColorMatrix values="0 0 0 0 0 0 0 0 0 0 0 0 0 0 0 0 0 0 0.25 0"/><feBlend in2="A"/><feBlend in="SourceGraphic"/></filter><filter id="D" x="1.031" y="445.967" width="193.406" height="193.433" filterUnits="userSpaceOnUse" class="B"><feFlood result="A" class="C"/><feColorMatrix in="SourceAlpha" values="0 0 0 0 0 0 0 0 0 0 0 0 0 0 0 0 0 0 127 0" result="B"/><feOffset dx="4" dy="4"/><feGaussianBlur stdDeviation="2"/><feComposite in2="B" operator="out"/><feColorMatrix values="0 0 0 0 0 0 0 0 0 0 0 0 0 0 0 0 0 0 0.25 0"/><feBlend in2="A"/><feBlend in="SourceGraphic"/></filter><filter id="E" x="152.281" y="480.125" width="86.078" height="86.07" filterUnits="userSpaceOnUse" class="B"><feFlood result="A" class="C"/><feColorMatrix in="SourceAlpha" values="0 0 0 0 0 0 0 0 0 0 0 0 0 0 0 0 0 0 127 0" result="B"/><feOffset dx="4" dy="4"/><feGaussianBlur stdDeviation="2"/><feComposite in2="B" operator="out"/><feColorMatrix values="0 0 0 0 0 0 0 0 0 0 0 0 0 0 0 0 0 0 0.25 0"/><feBlend in2="A"/><feBlend in="SourceGraphic"/></filter><filter id="F" x="212.633" y="541.796" width="76.313" height="76.311" filterUnits="userSpaceOnUse" class="B"><feFlood result="A" class="C"/><feColorMatrix in="SourceAlpha" values="0 0 0 0 0 0 0 0 0 0 0 0 0 0 0 0 0 0 127 0" result="B"/><feOffset dx="4" dy="4"/><feGaussianBlur stdDeviation="2"/><feComposite in2="B" operator="out"/><feColorMatrix values="0 0 0 0 0 0 0 0 0 0 0 0 0 0 0 0 0 0 0.25 0"/><feBlend in2="A"/><feBlend in="SourceGraphic"/></filter><filter id="G" x="25.406" y="1.953" width="154.391" height="154.381" filterUnits="userSpaceOnUse" class="B"><feFlood result="A" class="C"/><feColorMatrix in="SourceAlpha" values="0 0 0 0 0 0 0 0 0 0 0 0 0 0 0 0 0 0 127 0" result="B"/><feOffset dx="4" dy="4"/><feGaussianBlur stdDeviation="2"/><feComposite in2="B" operator="out"/><feColorMatrix values="0 0 0 0 0 0 0 0 0 0 0 0 0 0 0 0 0 0 0.25 0"/><feBlend in2="A"/><feBlend in="SourceGraphic"/></filter><filter id="H" x="45.773" y="63.332" width="246.273" height="246.299" filterUnits="userSpaceOnUse" class="B"><feFlood result="A" class="C"/><feColorMatrix in="SourceAlpha" values="0 0 0 0 0 0 0 0 0 0 0 0 0 0 0 0 0 0 127 0" result="B"/><feOffset dx="4" dy="4"/><feGaussianBlur stdDeviation="2"/><feComposite in2="B" operator="out"/><feColorMatrix values="0 0 0 0 0 0 0 0 0 0 0 0 0 0 0 0 0 0 0.25 0"/><feBlend in2="A"/><feBlend in="SourceGraphic"/></filter><filter id="I" x="25.844" y="216.869" width="173.508" height="173.46" filterUnits="userSpaceOnUse" class="B"><feFlood result="A" class="C"/><feColorMatrix in="SourceAlpha" values="0 0 0 0 0 0 0 0 0 0 0 0 0 0 0 0 0 0 127 0" result="B"/><feOffset dx="4" dy="4"/><feGaussianBlur stdDeviation="2"/><feComposite in2="B" operator="out"/><feColorMatrix values="0 0 0 0 0 0 0 0 0 0 0 0 0 0 0 0 0 0 0.25 0"/><feBlend in2="A"/><feBlend in="SourceGraphic"/></filter><filter id="J" x="205.992" y="28.791" width="110.438" height="110.473" filterUnits="userSpaceOnUse" class="B"><feFlood result="A" class="C"/><feColorMatrix in="SourceAlpha" values="0 0 0 0 0 0 0 0 0 0 0 0 0 0 0 0 0 0 127 0" result="B"/><feOffset dx="4" dy="4"/><feGaussianBlur stdDeviation="2"/><feComposite in2="B" operator="out"/><feColorMatrix values="0 0 0 0 0 0 0 0 0 0 0 0 0 0 0 0 0 0 0.25 0"/><feBlend in2="A"/><feBlend in="SourceGraphic"/></filter><filter id="K" x="229.031" y="144.528" width="93.648" height="93.682" filterUnits="userSpaceOnUse" class="B"><feFlood result="A" class="C"/><feColorMatrix in="SourceAlpha" values="0 0 0 0 0 0 0 0 0 0 0 0 0 0 0 0 0 0 127 0" result="B"/><feOffset dx="4" dy="4"/><feGaussianBlur stdDeviation="2"/><feComposite in2="B" operator="out"/><feColorMatrix values="0 0 0 0 0 0 0 0 0 0 0 0 0 0 0 0 0 0 0.25 0"/><feBlend in2="A"/><feBlend in="SourceGraphic"/></filter><filter id="L" x="254.758" y="264.061" width="20.539" height="20.536" filterUnits="userSpaceOnUse" class="B"><feFlood result="A" class="C"/><feColorMatrix in="SourceAlpha" values="0 0 0 0 0 0 0 0 0 0 0 0 0 0 0 0 0 0 127 0" result="B"/><feOffset dx="4" dy="4"/><feGaussianBlur stdDeviation="2"/><feComposite in2="B" operator="out"/><feColorMatrix values="0 0 0 0 0 0 0 0 0 0 0 0 0 0 0 0 0 0 0.25 0"/><feBlend in2="A"/><feBlend in="SourceGraphic"/></filter><filter id="M" x="94.695" y="371.135" width="108.336" height="108.326" filterUnits="userSpaceOnUse" class="B"><feFlood result="A" class="C"/><feColorMatrix in="SourceAlpha" values="0 0 0 0 0 0 0 0 0 0 0 0 0 0 0 0 0 0 127 0" result="B"/><feOffset dx="4" dy="4"/><feGaussianBlur stdDeviation="2"/><feComposite in2="B" operator="out"/><feColorMatrix values="0 0 0 0 0 0 0 0 0 0 0 0 0 0 0 0 0 0 0.25 0"/><feBlend in2="A"/><feBlend in="SourceGraphic"/></filter><filter id="N" x="181.953" y="580.796" width="111.055" height="111.048" filterUnits="userSpaceOnUse" class="B"><feFlood result="A" class="C"/><feColorMatrix in="SourceAlpha" values="0 0 0 0 0 0 0 0 0 0 0 0 0 0 0 0 0 0 127 0" result="B"/><feOffset dx="4" dy="4"/><feGaussianBlur stdDeviation="2"/><feComposite in2="B" operator="out"/><feColorMatrix values="0 0 0 0 0 0 0 0 0 0 0 0 0 0 0 0 0 0 0.25 0"/><feBlend in2="A"/><feBlend in="SourceGraphic"/></filter><filter id="O" x="29.984" y="402.072" width="37.945" height="37.941" filterUnits="userSpaceOnUse" class="B"><feFlood result="A" class="C"/><feColorMatrix in="SourceAlpha" values="0 0 0 0 0 0 0 0 0 0 0 0 0 0 0 0 0 0 127 0" result="B"/><feOffset dx="4" dy="4"/><feGaussianBlur stdDeviation="2"/><feComposite in2="B" operator="out"/><feColorMatrix values="0 0 0 0 0 0 0 0 0 0 0 0 0 0 0 0 0 0 0.25 0"/><feBlend in2="A"/><feBlend in="SourceGraphic"/></filter><filter id="P" x="-8.742" y="387.427" width="27.516" height="27.513" filterUnits="userSpaceOnUse" class="B"><feFlood result="A" class="C"/><feColorMatrix in="SourceAlpha" values="0 0 0 0 0 0 0 0 0 0 0 0 0 0 0 0 0 0 127 0" result="B"/><feOffset dx="4" dy="4"/><feGaussianBlur stdDeviation="2"/><feComposite in2="B" operator="out"/><feColorMatrix values="0 0 0 0 0 0 0 0 0 0 0 0 0 0 0 0 0 0 0.25 0"/><feBlend in2="A"/><feBlend in="SourceGraphic"/></filter><filter id="Q" x="191.352" y="30.822" width="28.32" height="28.318" filterUnits="userSpaceOnUse" class="B"><feFlood result="A" class="C"/><feColorMatrix in="SourceAlpha" values="0 0 0 0 0 0 0 0 0 0 0 0 0 0 0 0 0 0 127 0" result="B"/><feOffset dx="4" dy="4"/><feGaussianBlur stdDeviation="2"/><feComposite in2="B" operator="out"/><feColorMatrix values="0 0 0 0 0 0 0 0 0 0 0 0 0 0 0 0 0 0 0.25 0"/><feBlend in2="A"/><feBlend in="SourceGraphic"/></filter><filter id="R" x="101.062" y="3.719" width="58.188" height="58.144" filterUnits="userSpaceOnUse" class="B"><feFlood result="A" class="C"/><feColorMatrix in="SourceAlpha" values="0 0 0 0 0 0 0 0 0 0 0 0 0 0 0 0 0 0 127 0" result="B"/><feOffset dx="4" dy="4"/><feGaussianBlur stdDeviation="2"/><feComposite in2="B" operator="out"/><feColorMatrix values="0 0 0 0 0 0 0 0 0 0 0 0 0 0 0 0 0 0 0.25 0"/><feBlend in2="A"/><feBlend in="SourceGraphic"/></filter><filter id="S" x="-45.625" y="127.43" width="108.336" height="108.326" filterUnits="userSpaceOnUse" class="B"><feFlood result="A" class="C"/><feColorMatrix in="SourceAlpha" values="0 0 0 0 0 0 0 0 0 0 0 0 0 0 0 0 0 0 127 0" result="B"/><feOffset dx="4" dy="4"/><feGaussianBlur stdDeviation="2"/><feComposite in2="B" operator="out"/><feColorMatrix values="0 0 0 0 0 0 0 0 0 0 0 0 0 0 0 0 0 0 0.25 0"/><feBlend in2="A"/><feBlend in="SourceGraphic"/></filter><filter id="T" x="-7.555" y="101.898" width="25.172" height="25.175" filterUnits="userSpaceOnUse" class="B"><feFlood result="A" class="C"/><feColorMatrix in="SourceAlpha" values="0 0 0 0 0 0 0 0 0 0 0 0 0 0 0 0 0 0 127 0" result="B"/><feOffset dx="4" dy="4"/><feGaussianBlur stdDeviation="2"/><feComposite in2="B" operator="out"/><feColorMatrix values="0 0 0 0 0 0 0 0 0 0 0 0 0 0 0 0 0 0 0.25 0"/><feBlend in2="A"/><feBlend in="SourceGraphic"/></filter><filter id="U" x="160.719" y="524.058" width="59.453" height="59.447" filterUnits="userSpaceOnUse" class="B"><feFlood result="A" class="C"/><feColorMatrix in="SourceAlpha" values="0 0 0 0 0 0 0 0 0 0 0 0 0 0 0 0 0 0 127 0" result="B"/><feOffset dx="4" dy="4"/><feGaussianBlur stdDeviation="2"/><feComposite in2="B" operator="out"/><feColorMatrix values="0 0 0 0 0 0 0 0 0 0 0 0 0 0 0 0 0 0 0.25 0"/><feBlend in2="A"/><feBlend in="SourceGraphic"/></filter><filter id="V" x="273.93" y="491.664" width="33.109" height="33.072" filterUnits="userSpaceOnUse" class="B"><feFlood result="A" class="C"/><feColorMatrix in="SourceAlpha" values="0 0 0 0 0 0 0 0 0 0 0 0 0 0 0 0 0 0 127 0" result="B"/><feOffset dx="4" dy="4"/><feGaussianBlur stdDeviation="2"/><feComposite in2="B" operator="out"/><feColorMatrix values="0 0 0 0 0 0 0 0 0 0 0 0 0 0 0 0 0 0 0.25 0"/><feBlend in2="A"/><feBlend in="SourceGraphic"/></filter><filter id="W" x="235.242" y="519.151" width="27.516" height="27.552" filterUnits="userSpaceOnUse" class="B"><feFlood result="A" class="C"/><feColorMatrix in="SourceAlpha" values="0 0 0 0 0 0 0 0 0 0 0 0 0 0 0 0 0 0 127 0" result="B"/><feOffset dx="4" dy="4"/><feGaussianBlur stdDeviation="2"/><feComposite in2="B" operator="out"/><feColorMatrix values="0 0 0 0 0 0 0 0 0 0 0 0 0 0 0 0 0 0 0.25 0"/><feBlend in2="A"/><feBlend in="SourceGraphic"/></filter><filter id="X" x="162.055" y="587.467" width="27.516" height="27.513" filterUnits="userSpaceOnUse" class="B"><feFlood result="A" class="C"/><feColorMatrix in="SourceAlpha" values="0 0 0 0 0 0 0 0 0 0 0 0 0 0 0 0 0 0 127 0" result="B"/><feOffset dx="4" dy="4"/><feGaussianBlur stdDeviation="2"/><feComposite in2="B" operator="out"/><feColorMatrix values="0 0 0 0 0 0 0 0 0 0 0 0 0 0 0 0 0 0 0.25 0"/><feBlend in2="A"/><feBlend in="SourceGraphic"/></filter><filter id="Y" x="240.117" y="499.638" width="17.773" height="17.776" filterUnits="userSpaceOnUse" class="B"><feFlood result="A" class="C"/><feColorMatrix in="SourceAlpha" values="0 0 0 0 0 0 0 0 0 0 0 0 0 0 0 0 0 0 127 0" result="B"/><feOffset dx="4" dy="4"/><feGaussianBlur stdDeviation="2"/><feComposite in2="B" operator="out"/><feColorMatrix values="0 0 0 0 0 0 0 0 0 0 0 0 0 0 0 0 0 0 0.25 0"/><feBlend in2="A"/><feBlend in="SourceGraphic"/></filter><filter id="Z" x="133.852" y="274.111" width="134.875" height="134.864" filterUnits="userSpaceOnUse" class="B"><feFlood result="A" class="C"/><feColorMatrix in="SourceAlpha" values="0 0 0 0 0 0 0 0 0 0 0 0 0 0 0 0 0 0 127 0" result="B"/><feOffset dx="4" dy="4"/><feGaussianBlur stdDeviation="2"/><feComposite in2="B" operator="out"/><feColorMatrix values="0 0 0 0 0 0 0 0 0 0 0 0 0 0 0 0 0 0 0.25 0"/><feBlend in2="A"/><feBlend in="SourceGraphic"/></filter><filter id="a" x="220.617" y="189.821" width="81.195" height="81.191" filterUnits="userSpaceOnUse" class="B"><feFlood result="A" class="C"/><feColorMatrix in="SourceAlpha" values="0 0 0 0 0 0 0 0 0 0 0 0 0 0 0 0 0 0 127 0" result="B"/><feOffset dx="4" dy="4"/><feGaussianBlur stdDeviation="2"/><feComposite in2="B" operator="out"/><feColorMatrix values="0 0 0 0 0 0 0 0 0 0 0 0 0 0 0 0 0 0 0.25 0"/><feBlend in2="A"/><feBlend in="SourceGraphic"/></filter><filter id="b" x="200.398" y="284.954" width="58.188" height="58.182" filterUnits="userSpaceOnUse" class="B"><feFlood result="A" class="C"/><feColorMatrix in="SourceAlpha" values="0 0 0 0 0 0 0 0 0 0 0 0 0 0 0 0 0 0 127 0" result="B"/><feOffset dx="4" dy="4"/><feGaussianBlur stdDeviation="2"/><feComposite in2="B" operator="out"/><feColorMatrix values="0 0 0 0 0 0 0 0 0 0 0 0 0 0 0 0 0 0 0.25 0"/><feBlend in2="A"/><feBlend in="SourceGraphic"/></filter><filter id="c" x="-20.547" y="121.488" width="206.367" height="212.371" filterUnits="userSpaceOnUse" class="B"><feFlood result="A" class="C"/><feColorMatrix in="SourceAlpha" values="0 0 0 0 0 0 0 0 0 0 0 0 0 0 0 0 0 0 127 0" result="B"/><feOffset dx="4" dy="4"/><feGaussianBlur stdDeviation="2"/><feComposite in2="B" operator="out"/><feColorMatrix values="0 0 0 0 0 0 0 0 0 0 0 0 0 0 0 0 0 0 0.25 0"/><feBlend in2="A"/><feBlend in="SourceGraphic"/></filter><filter id="d" x="186.977" y="97.643" width="122.938" height="122.932" filterUnits="userSpaceOnUse" class="B"><feFlood result="A" class="C"/><feColorMatrix in="SourceAlpha" values="0 0 0 0 0 0 0 0 0 0 0 0 0 0 0 0 0 0 127 0" result="B"/><feOffset dx="4" dy="4"/><feGaussianBlur stdDeviation="2"/><feComposite in2="B" operator="out"/><feColorMatrix values="0 0 0 0 0 0 0 0 0 0 0 0 0 0 0 0 0 0 0.25 0"/><feBlend in2="A"/><feBlend in="SourceGraphic"/></filter><filter id="e" x="97.266" y="530" width="122.938" height="122.932" filterUnits="userSpaceOnUse" class="B"><feFlood result="A" class="C"/><feColorMatrix in="SourceAlpha" values="0 0 0 0 0 0 0 0 0 0 0 0 0 0 0 0 0 0 127 0" result="B"/><feOffset dx="4" dy="4"/><feGaussianBlur stdDeviation="2"/><feComposite in2="B" operator="out"/><feColorMatrix values="0 0 0 0 0 0 0 0 0 0 0 0 0 0 0 0 0 0 0.25 0"/><feBlend in2="A"/><feBlend in="SourceGraphic"/></filter><filter id="f" x="70.43" y="7.897" width="157.141" height="157.09" filterUnits="userSpaceOnUse" class="B"><feFlood result="A" class="C"/><feColorMatrix in="SourceAlpha" values="0 0 0 0 0 0 0 0 0 0 0 0 0 0 0 0 0 0 127 0" result="B"/><feOffset dx="4" dy="4"/><feGaussianBlur stdDeviation="2"/><feComposite in2="B" operator="out"/><feColorMatrix values="0 0 0 0 0 0 0 0 0 0 0 0 0 0 0 0 0 0 0.25 0"/><feBlend in2="A"/><feBlend in="SourceGraphic"/></filter><filter id="g" x="231.453" y="359.25" width="69.266" height="69.262" filterUnits="userSpaceOnUse" class="B"><feFlood result="A" class="C"/><feColorMatrix in="SourceAlpha" values="0 0 0 0 0 0 0 0 0 0 0 0 0 0 0 0 0 0 127 0" result="B"/><feOffset dx="4" dy="4"/><feGaussianBlur stdDeviation="2"/><feComposite in2="B" operator="out"/><feColorMatrix values="0 0 0 0 0 0 0 0 0 0 0 0 0 0 0 0 0 0 0.25 0"/><feBlend in2="A"/><feBlend in="SourceGraphic"/></filter><filter id="h" x="-4.562" y="561.82" width="198.312" height="161.115" filterUnits="userSpaceOnUse" class="B"><feFlood result="A" class="C"/><feColorMatrix in="SourceAlpha" values="0 0 0 0 0 0 0 0 0 0 0 0 0 0 0 0 0 0 127 0" result="B"/><feOffset dx="4" dy="4"/><feGaussianBlur stdDeviation="2"/><feComposite in2="B" operator="out"/><feColorMatrix values="0 0 0 0 0 0 0 0 0 0 0 0 0 0 0 0 0 0 0.25 0"/><feBlend in2="A"/><feBlend in="SourceGraphic"/></filter><filter id="i" x="294.898" y="556.874" width="54.617" height="54.617" filterUnits="userSpaceOnUse" class="B"><feFlood result="A" class="C"/><feColorMatrix in="SourceAlpha" values="0 0 0 0 0 0 0 0 0 0 0 0 0 0 0 0 0 0 127 0" result="B"/><feOffset dx="4" dy="4"/><feGaussianBlur stdDeviation="2"/><feComposite in2="B" operator="out"/><feColorMatrix values="0 0 0 0 0 0 0 0 0 0 0 0 0 0 0 0 0 0 0.25 0"/><feBlend in2="A"/><feBlend in="SourceGraphic"/></filter><filter id="j" x="332.859" y="560.631" width="12.867" height="12.907" filterUnits="userSpaceOnUse" class="B"><feFlood result="A" class="C"/><feColorMatrix in="SourceAlpha" values="0 0 0 0 0 0 0 0 0 0 0 0 0 0 0 0 0 0 127 0" result="B"/><feOffset dx="4" dy="4"/><feGaussianBlur stdDeviation="2"/><feComposite in2="B" operator="out"/><feColorMatrix values="0 0 0 0 0 0 0 0 0 0 0 0 0 0 0 0 0 0 0.25 0"/><feBlend in2="A"/><feBlend in="SourceGraphic"/></filter><filter id="k" x="153.539" y="705.693" width="86.078" height="86.07" filterUnits="userSpaceOnUse" class="B"><feFlood result="A" class="C"/><feColorMatrix in="SourceAlpha" values="0 0 0 0 0 0 0 0 0 0 0 0 0 0 0 0 0 0 127 0" result="B"/><feOffset dx="4" dy="4"/><feGaussianBlur stdDeviation="2"/><feComposite in2="B" operator="out"/><feColorMatrix values="0 0 0 0 0 0 0 0 0 0 0 0 0 0 0 0 0 0 0.25 0"/><feBlend in2="A"/><feBlend in="SourceGraphic"/></filter><filter id="l" x="213.852" y="653.783" width="76.313" height="76.311" filterUnits="userSpaceOnUse" class="B"><feFlood result="A" class="C"/><feColorMatrix in="SourceAlpha" values="0 0 0 0 0 0 0 0 0 0 0 0 0 0 0 0 0 0 127 0" result="B"/><feOffset dx="4" dy="4"/><feGaussianBlur stdDeviation="2"/><feComposite in2="B" operator="out"/><feColorMatrix values="0 0 0 0 0 0 0 0 0 0 0 0 0 0 0 0 0 0 0.25 0"/><feBlend in2="A"/><feBlend in="SourceGraphic"/></filter><filter id="m" x="161.984" y="688.406" width="59.453" height="59.448" filterUnits="userSpaceOnUse" class="B"><feFlood result="A" class="C"/><feColorMatrix in="SourceAlpha" values="0 0 0 0 0 0 0 0 0 0 0 0 0 0 0 0 0 0 127 0" result="B"/><feOffset dx="4" dy="4"/><feGaussianBlur stdDeviation="2"/><feComposite in2="B" operator="out"/><feColorMatrix values="0 0 0 0 0 0 0 0 0 0 0 0 0 0 0 0 0 0 0.25 0"/><feBlend in2="A"/><feBlend in="SourceGraphic"/></filter><filter id="n" x="275.195" y="747.176" width="33.07" height="33.072" filterUnits="userSpaceOnUse" class="B"><feFlood result="A" class="C"/><feColorMatrix in="SourceAlpha" values="0 0 0 0 0 0 0 0 0 0 0 0 0 0 0 0 0 0 127 0" result="B"/><feOffset dx="4" dy="4"/><feGaussianBlur stdDeviation="2"/><feComposite in2="B" operator="out"/><feColorMatrix values="0 0 0 0 0 0 0 0 0 0 0 0 0 0 0 0 0 0 0.25 0"/><feBlend in2="A"/><feBlend in="SourceGraphic"/></filter><filter id="o" x="236.508" y="725.209" width="27.516" height="27.513" filterUnits="userSpaceOnUse" class="B"><feFlood result="A" class="C"/><feColorMatrix in="SourceAlpha" values="0 0 0 0 0 0 0 0 0 0 0 0 0 0 0 0 0 0 127 0" result="B"/><feOffset dx="4" dy="4"/><feGaussianBlur stdDeviation="2"/><feComposite in2="B" operator="out"/><feColorMatrix values="0 0 0 0 0 0 0 0 0 0 0 0 0 0 0 0 0 0 0.25 0"/><feBlend in2="A"/><feBlend in="SourceGraphic"/></filter><filter id="p" x="163.281" y="656.894" width="27.555" height="27.513" filterUnits="userSpaceOnUse" class="B"><feFlood result="A" class="C"/><feColorMatrix in="SourceAlpha" values="0 0 0 0 0 0 0 0 0 0 0 0 0 0 0 0 0 0 127 0" result="B"/><feOffset dx="4" dy="4"/><feGaussianBlur stdDeviation="2"/><feComposite in2="B" operator="out"/><feColorMatrix values="0 0 0 0 0 0 0 0 0 0 0 0 0 0 0 0 0 0 0.25 0"/><feBlend in2="A"/><feBlend in="SourceGraphic"/></filter><filter id="q" x="241.383" y="754.498" width="17.734" height="17.737" filterUnits="userSpaceOnUse" class="B"><feFlood result="A" class="C"/><feColorMatrix in="SourceAlpha" values="0 0 0 0 0 0 0 0 0 0 0 0 0 0 0 0 0 0 127 0" result="B"/><feOffset dx="4" dy="4"/><feGaussianBlur stdDeviation="2"/><feComposite in2="B" operator="out"/><feColorMatrix values="0 0 0 0 0 0 0 0 0 0 0 0 0 0 0 0 0 0 0.25 0"/><feBlend in2="A"/><feBlend in="SourceGraphic"/></filter><filter id="r" x="98.531" y="618.941" width="122.938" height="122.932" filterUnits="userSpaceOnUse" class="B"><feFlood result="A" class="C"/><feColorMatrix in="SourceAlpha" values="0 0 0 0 0 0 0 0 0 0 0 0 0 0 0 0 0 0 127 0" result="B"/><feOffset dx="4" dy="4"/><feGaussianBlur stdDeviation="2"/><feComposite in2="B" operator="out"/><feColorMatrix values="0 0 0 0 0 0 0 0 0 0 0 0 0 0 0 0 0 0 0.25 0"/><feBlend in2="A"/><feBlend in="SourceGraphic"/></filter><filter id="s" x="276.961" y="691.627" width="54.617" height="54.617" filterUnits="userSpaceOnUse" class="B"><feFlood result="A" class="C"/><feColorMatrix in="SourceAlpha" values="0 0 0 0 0 0 0 0 0 0 0 0 0 0 0 0 0 0 127 0" result="B"/><feOffset dx="4" dy="4"/><feGaussianBlur stdDeviation="2"/><feComposite in2="B" operator="out"/><feColorMatrix values="0 0 0 0 0 0 0 0 0 0 0 0 0 0 0 0 0 0 0.25 0"/><feBlend in2="A"/><feBlend in="SourceGraphic"/></filter><filter id="t" x="314.914" y="729.58" width="12.867" height="12.869" filterUnits="userSpaceOnUse" class="B"><feFlood result="A" class="C"/><feColorMatrix in="SourceAlpha" values="0 0 0 0 0 0 0 0 0 0 0 0 0 0 0 0 0 0 127 0" result="B"/><feOffset dx="4" dy="4"/><feGaussianBlur stdDeviation="2"/><feComposite in2="B" operator="out"/><feColorMatrix values="0 0 0 0 0 0 0 0 0 0 0 0 0 0 0 0 0 0 0.25 0"/><feBlend in2="A"/><feBlend in="SourceGraphic"/></filter><filter id="u" x="203.438" y="773.991" width="86.078" height="86.07" filterUnits="userSpaceOnUse" class="B"><feFlood result="A" class="C"/><feColorMatrix in="SourceAlpha" values="0 0 0 0 0 0 0 0 0 0 0 0 0 0 0 0 0 0 127 0" result="B"/><feOffset dx="4" dy="4"/><feGaussianBlur stdDeviation="2"/><feComposite in2="B" operator="out"/><feColorMatrix values="0 0 0 0 0 0 0 0 0 0 0 0 0 0 0 0 0 0 0.25 0"/><feBlend in2="A"/><feBlend in="SourceGraphic"/></filter><filter id="v" x="211.859" y="817.907" width="59.453" height="59.447" filterUnits="userSpaceOnUse" class="B"><feFlood result="A" class="C"/><feColorMatrix in="SourceAlpha" values="0 0 0 0 0 0 0 0 0 0 0 0 0 0 0 0 0 0 127 0" result="B"/><feOffset dx="4" dy="4"/><feGaussianBlur stdDeviation="2"/><feComposite in2="B" operator="out"/><feColorMatrix values="0 0 0 0 0 0 0 0 0 0 0 0 0 0 0 0 0 0 0.25 0"/><feBlend in2="A"/><feBlend in="SourceGraphic"/></filter><filter id="w" x="325.07" y="785.512" width="33.07" height="33.072" filterUnits="userSpaceOnUse" class="B"><feFlood result="A" class="C"/><feColorMatrix in="SourceAlpha" values="0 0 0 0 0 0 0 0 0 0 0 0 0 0 0 0 0 0 127 0" result="B"/><feOffset dx="4" dy="4"/><feGaussianBlur stdDeviation="2"/><feComposite in2="B" operator="out"/><feColorMatrix values="0 0 0 0 0 0 0 0 0 0 0 0 0 0 0 0 0 0 0.25 0"/><feBlend in2="A"/><feBlend in="SourceGraphic"/></filter><filter id="x" x="290.609" y="816.488" width="27.516" height="27.513" filterUnits="userSpaceOnUse" class="B"><feFlood result="A" class="C"/><feColorMatrix in="SourceAlpha" values="0 0 0 0 0 0 0 0 0 0 0 0 0 0 0 0 0 0 127 0" result="B"/><feOffset dx="4" dy="4"/><feGaussianBlur stdDeviation="2"/><feComposite in2="B" operator="out"/><feColorMatrix values="0 0 0 0 0 0 0 0 0 0 0 0 0 0 0 0 0 0 0.25 0"/><feBlend in2="A"/><feBlend in="SourceGraphic"/></filter><filter id="y" x="298.43" y="793.18" width="17.734" height="17.737" filterUnits="userSpaceOnUse" class="B"><feFlood result="A" class="C"/><feColorMatrix in="SourceAlpha" values="0 0 0 0 0 0 0 0 0 0 0 0 0 0 0 0 0 0 127 0" result="B"/><feOffset dx="4" dy="4"/><feGaussianBlur stdDeviation="2"/><feComposite in2="B" operator="out"/><feColorMatrix values="0 0 0 0 0 0 0 0 0 0 0 0 0 0 0 0 0 0 0.25 0"/><feBlend in2="A"/><feBlend in="SourceGraphic"/></filter><filter id="z" x="148.406" y="823.887" width="122.938" height="122.932" filterUnits="userSpaceOnUse" class="B"><feFlood result="A" class="C"/><feColorMatrix in="SourceAlpha" values="0 0 0 0 0 0 0 0 0 0 0 0 0 0 0 0 0 0 127 0" result="B"/><feOffset dx="4" dy="4"/><feGaussianBlur stdDeviation="2"/><feComposite in2="B" operator="out"/><feColorMatrix values="0 0 0 0 0 0 0 0 0 0 0 0 0 0 0 0 0 0 0.25 0"/><feBlend in2="A"/><feBlend in="SourceGraphic"/></filter><linearGradient id="AA" x1="1.031" y1="538.684" x2="186.437" y2="538.684" href="#Af"><stop stop-color="#e64400"/><stop offset="1" stop-color="#da9316"/></linearGradient><linearGradient id="AB" x1="45.773" y1="182.481" x2="284.048" y2="182.481" href="#Af"><stop stop-color="#e64400"/><stop offset="1" stop-color="#da9316"/></linearGradient><linearGradient id="AC" x1="25.846" y1="299.599" x2="191.354" y2="299.599" href="#Af"><stop stop-color="#e64400"/><stop offset="1" stop-color="#da9316"/></linearGradient><linearGradient id="AD" x1="205.991" y1="80.027" x2="308.432" y2="80.027" href="#Af"><stop stop-color="#e64400"/><stop offset="1" stop-color="#da9316"/></linearGradient><linearGradient id="AE" x1="254.758" y1="270.329" x2="267.295" y2="270.329" href="#Af"><stop stop-color="#e64400"/><stop offset="1" stop-color="#da9316"/></linearGradient><linearGradient id="AF" x1="94.695" y1="421.298" x2="195.028" y2="421.298" href="#Af"><stop stop-color="#e64400"/><stop offset="1" stop-color="#da9316"/></linearGradient><linearGradient id="AG" x1="181.953" y1="632.32" x2="285.008" y2="632.32" href="#Af"><stop stop-color="#e64400"/><stop offset="1" stop-color="#da9316"/></linearGradient><linearGradient id="AH" x1="29.987" y1="417.042" x2="59.929" y2="417.042" href="#Af"><stop stop-color="#e64400"/><stop offset="1" stop-color="#da9316"/></linearGradient><linearGradient id="AI" x1="-8.742" y1="397.184" x2="10.772" y2="397.184" href="#Af"><stop stop-color="#e64400"/><stop offset="1" stop-color="#da9316"/></linearGradient><linearGradient id="AJ" x1="191.349" y1="40.981" x2="211.668" y2="40.981" href="#Af"><stop stop-color="#e64400"/><stop offset="1" stop-color="#da9316"/></linearGradient><linearGradient id="AK" x1="101.059" y1="28.791" x2="151.244" y2="28.791" href="#Af"><stop stop-color="#e64400"/><stop offset="1" stop-color="#da9316"/></linearGradient><linearGradient id="AL" x1="-45.623" y1="177.593" x2="54.709" y2="177.593" href="#Af"><stop stop-color="#e64400"/><stop offset="1" stop-color="#da9316"/></linearGradient><linearGradient id="AM" x1="-7.554" y1="110.485" x2="9.622" y2="110.485" href="#Af"><stop stop-color="#e64400"/><stop offset="1" stop-color="#da9316"/></linearGradient><linearGradient id="AN" x1="160.718" y1="549.782" x2="212.169" y2="549.782" href="#Af"><stop stop-color="#e64400"/><stop offset="1" stop-color="#da9316"/></linearGradient><linearGradient id="AO" x1="273.924" y1="504.2" x2="299.007" y2="504.2" href="#Af"><stop stop-color="#e64400"/><stop offset="1" stop-color="#da9316"/></linearGradient><linearGradient id="AP" x1="235.242" y1="528.927" x2="254.757" y2="528.927" href="#Af"><stop stop-color="#e64400"/><stop offset="1" stop-color="#da9316"/></linearGradient><linearGradient id="AQ" x1="162.055" y1="597.223" x2="181.569" y2="597.223" href="#Af"><stop stop-color="#e64400"/><stop offset="1" stop-color="#da9316"/></linearGradient><linearGradient id="AR" x1="240.131" y1="504.526" x2="249.891" y2="504.526" href="#Af"><stop stop-color="#e64400"/><stop offset="1" stop-color="#da9316"/></linearGradient><linearGradient id="AS" x1="200.402" y1="310.046" x2="250.587" y2="310.046" href="#Af"><stop stop-color="#e64400"/><stop offset="1" stop-color="#da9316"/></linearGradient><linearGradient id="AT" x1="332.846" y1="563.085" x2="337.726" y2="563.085" href="#Af"><stop stop-color="#e64400"/><stop offset="1" stop-color="#da9316"/></linearGradient><linearGradient id="AU" x1="161.981" y1="714.13" x2="213.432" y2="714.129" href="#Af"><stop stop-color="#e64400"/><stop offset="1" stop-color="#da9316"/></linearGradient><linearGradient id="AV" x1="275.195" y1="759.712" x2="300.269" y2="759.712" href="#Af"><stop stop-color="#e64400"/><stop offset="1" stop-color="#da9316"/></linearGradient><linearGradient id="AW" x1="236.508" y1="734.966" x2="256.022" y2="734.966" href="#Af"><stop stop-color="#e64400"/><stop offset="1" stop-color="#da9316"/></linearGradient><linearGradient id="AX" x1="163.281" y1="666.65" x2="182.8" y2="666.65" href="#Af"><stop stop-color="#e64400"/><stop offset="1" stop-color="#da9316"/></linearGradient><linearGradient id="AY" x1="241.383" y1="759.367" x2="251.142" y2="759.367" href="#Af"><stop stop-color="#e64400"/><stop offset="1" stop-color="#da9316"/></linearGradient><linearGradient id="AZ" x1="314.921" y1="732.014" x2="319.801" y2="732.014" href="#Af"><stop stop-color="#e64400"/><stop offset="1" stop-color="#da9316"/></linearGradient><linearGradient id="Aa" x1="211.865" y1="843.635" x2="263.315" y2="843.635" href="#Af"><stop stop-color="#e64400"/><stop offset="1" stop-color="#da9316"/></linearGradient><linearGradient id="Ab" x1="325.079" y1="798.053" x2="350.152" y2="798.053" href="#Af"><stop stop-color="#e64400"/><stop offset="1" stop-color="#da9316"/></linearGradient><linearGradient id="Ac" x1="290.618" y1="826.249" x2="310.132" y2="826.249" href="#Af"><stop stop-color="#e64400"/><stop offset="1" stop-color="#da9316"/></linearGradient><linearGradient id="Ad" x1="298.431" y1="798.053" x2="308.19" y2="798.053" href="#Af"><stop stop-color="#e64400"/><stop offset="1" stop-color="#da9316"/></linearGradient><clipPath id="Ae"><path fill="#fff" d="M0 0h360v860H0z"/></clipPath><linearGradient id="Af" gradientUnits="userSpaceOnUse"/></defs></svg>