<svg xmlns="http://www.w3.org/2000/svg" viewBox="0 0 1706.7 2596.4"><g fill="none"><g stroke-miterlimit="10"><use href="#A" stroke="#fff" stroke-width="41"/><use href="#A" stroke="#2c2b30" stroke-width="37"/></g><use href="#A" stroke="#fff" stroke-width="1.5" stroke-dasharray="6.9889,7.9873"/></g><defs><path id="A" d="M132.9 21l1270.1-.1c48.2 0 87.4 39.1 87.4 87.4v2.3c0 50.2-40.3 90.5-90 90.5H771.3c-49.2 0-89.1 39.9-89.1 89.1h0c0 49.1 39.8 89 88.9 89.1l609.4 1.5c49.2.1 89 40 89 89.2h0c0 49.2-39.8 89.1-89 89.2L771 560.8c-49.1.1-88.9 40-88.9 89.1v.2c0 49.1 39.8 89 88.9 89.1l804.6 1.8c61.6 0 111.5 49.9 111.5 111.5v1612.4c0 61.6-49.9 111.5-111.5 111.5H132.9c-61.6 0-111.5-49.9-111.5-111.5V132.5C21.4 70.9 71.3 21 132.9 21z"/></defs></svg>