<svg xmlns="http://www.w3.org/2000/svg" viewBox="0 0 1145 1145"><path d="M454.8 564.8c-17.2 0-31.3 14.1-31.3 31.3s14.1 31.3 31.3 31.3 31.3-14.1 31.3-31.3c0-17.4-14.1-31.3-31.3-31.3zm235.2 0c-17.2 0-31.3 14.1-31.3 31.3s14.1 31.3 31.3 31.3 31.3-14.1 31.3-31.3a31.22 31.22 0 0 0-31.3-31.3zM572.5 0C256.4 0 0 256.4 0 572.5S256.4 1145 572.5 1145 1145 888.6 1145 572.5 888.8 0 572.5 0zm-129 294.3l117.7-117.7c6.1-6.2 16.1-6.2 22.2-.1l.1.1 5.6 5.4 112.2 112.2c2.9 2.9 4.6 7 4.6 11.1 0 4.2-1.7 8.2-4.6 11.1s-7 4.6-11.1 4.6-8.2-1.7-11.1-4.6L572.5 210.2 466 316.7c-6.2 6.2-16.3 6.2-22.3 0-6.2-6.1-6.2-16.2-.2-22.4zm-165 407c-2.9 2.9-7 4.6-11.1 4.6-4.2 0-8.2-1.7-11.1-4.6L138.6 583.6c-6.2-6.2-6.2-16.3 0-22.3l117.7-117.7 1.1-1.2c2.8-2.3 6.3-3.6 9.9-3.6 4.2 0 8.2 1.7 11.1 4.6 6.2 6.2 6.2 16.3 0 22.3L172 572.3l106.5 106.5c2.9 2.9 4.6 7 4.6 11.1.1 4.4-1.6 8.5-4.6 11.4h0zm422.8 149.2L583.6 968.2c-2.9 2.9-7 4.6-11.1 4.6s-8.2-1.7-11.1-4.6l-5.6-5.4h0L443.5 850.5c-2.9-2.9-4.6-7-4.6-11.1s1.7-8.2 4.6-11.1 7-4.6 11.1-4.6c4.2 0 8.2 1.7 11.1 4.6l106.5 106.4 106.5-106.5c2.9-2.9 7-4.6 11.1-4.6s8.2 1.7 11.1 4.6 4.6 7 4.6 11.1-1.3 8.3-4.2 11.2h0zm51.6-137c0 8.7-7.1 15.8-15.8 15.8h-23.5c-8.7 0-15.8-7.1-15.8-15.8v-43H447.1v43c0 8.7-7.1 15.8-15.8 15.8h-23.5c-8.7 0-15.8-7.1-15.8-15.8V572.3c0-15.9 9.6-30.2 24.3-36.4l3.3-1.4 27.1-77.1c8.8-25.2 32.7-42.1 59.3-42.1h133.1c26.6 0 50.5 16.9 59.3 42.1l27.1 77.1 3.3 1.4c14.7 6.2 24.3 20.4 24.3 36.4l-.2 141.2h0 0zm135.9-12.4l-1.1 1.2c-2.8 2.3-6.3 3.6-9.9 3.6-4.2 0-8.2-1.7-11.1-4.6s-4.6-7-4.6-11.1 1.7-8.2 4.6-11.1L973 572.5 866.5 466c-2.9-2.9-4.6-7-4.6-11.1 0-4.2 1.7-8.2 4.6-11.1 6.1-6.2 16.1-6.2 22.2-.1l.1.1 117.7 117.7c6.2 6.2 6.2 16.3 0 22.3L888.8 701.1h0zM668.5 468c-4.3-12.5-16.3-20.9-29.6-20.9H505.8c-13.3 0-25.1 8.4-29.6 20.9l-22.6 65.2h237.8L668.5 468h0z" fill="#ffb121"/></svg>