<svg xmlns="http://www.w3.org/2000/svg" viewBox="0 0 1145 1145" fill="#ffb121"><path d="M549 430l-34.2 85.5h130v-110h-59.7c-16 0-30.2 9.6-36.1 24.5z"/><circle cx="573.8" cy="700.5" r="55"/><path d="M797.4 420.1c-7.4-9.3-18.6-14.6-30.5-14.6h-88.1v110h195l-76.4-95.4zm114.2 227.6c-13.9-4.7-28.8-3.7-42 2.8-13.1 6.5-23 17.7-27.7 31.6-.2.4-.3.9-.5 1.3-9.7 28.7 5.8 60 34.5 69.7 5.8 2 11.7 2.9 17.6 2.9 22.9 0 44.3-14.4 52.1-37.3.2-.4.3-.9.5-1.3h0c4.7-13.9 3.7-28.8-2.8-42-6.6-13.1-17.8-23-31.7-27.7h0zM572.5 0h0C256.3 0 0 256.3 0 572.5h0C0 888.7 256.3 1145 572.5 1145h0c316.2 0 572.5-256.3 572.5-572.5h0C1145 256.3 888.7 0 572.5 0zM248.3 355.5h183.3c10.6 0 19.2 8.6 19.2 19.2s-8.6 19.2-19.2 19.2H248.3c-10.6 0-19.2-8.6-19.2-19.2s8.6-19.2 19.2-19.2zM117.4 460.2h314.2c10.6 0 19.2 8.6 19.2 19.2s-8.6 19.2-19.2 19.2H117.4c-10.6 0-19.2-8.6-19.2-19.2s8.6-19.2 19.2-19.2zm929.4 224.3c0 13.8-11.2 25-25 25h-39.2l-1 5.8c-7.2 43-44.1 74.2-87.8 74.2s-80.6-31.2-87.8-74.2l-1-5.8H662.5l-1 5.8c-7.2 43-44.1 74.2-87.8 74.2s-80.6-31.2-87.8-74.2l-1-5.8h-39.1c-2.7 0-5.5-.4-8.1-1.3l-1.6-.5-1.7.2c-.9.1-1.9.2-2.8.2H117.4c-10.6 0-19.2-8.6-19.2-19.2s8.6-19.2 19.2-19.2h303.4v-66.4H248.3c-10.6 0-19.2-8.6-19.2-19.2s8.6-19.2 19.2-19.2H421l1.3-5.4c4.2-18.2 17.2-33.2 34.7-40.1l2.8-1.1 42.7-106.9c13.5-34 45.9-55.9 82.6-55.9H767c27.3 0 52.6 12.2 69.5 33.4l101.8 127.2 2.8.4c60.2 7.7 105.7 59.3 105.7 120.1v47.9h0 0z"/></svg>